<?xml version="1.0" encoding="UTF-8"?>
<!DOCTYPE svg PUBLIC "-//W3C//DTD SVG 1.1//EN" "http://www.w3.org/Graphics/SVG/1.1/DTD/svg11.dtd">
<svg xmlns="http://www.w3.org/2000/svg" version="1.1" width="196px" height="196px" style="shape-rendering:geometricPrecision; text-rendering:geometricPrecision; image-rendering:optimizeQuality; fill-rule:evenodd; clip-rule:evenodd" xmlns:xlink="http://www.w3.org/1999/xlink">
<g><path style="opacity:1" fill="#f8f8f9" d="M 80.5,-0.5 C 91.8333,-0.5 103.167,-0.5 114.5,-0.5C 150.659,7.18344 175.825,28.1834 190,62.5C 191.893,67.0068 193.059,71.6734 193.5,76.5C 193.335,79.5184 193.502,82.5184 194,85.5C 194.278,86.4158 194.778,87.0825 195.5,87.5C 195.5,96.5 195.5,105.5 195.5,114.5C 193.219,124.674 189.552,134.34 184.5,143.5C 182.296,144.351 180.963,143.351 180.5,140.5C 174.094,134.423 167.76,128.423 161.5,122.5C 157.303,114.593 150.97,110.593 142.5,110.5C 142.5,111.833 142.5,113.167 142.5,114.5C 142.167,114.5 141.833,114.5 141.5,114.5C 141.802,111.941 141.468,109.607 140.5,107.5C 142.007,101.306 140.007,96.8061 134.5,94C 130.463,93.8873 126.796,92.7207 123.5,90.5C 119.339,88.9372 115.005,88.2705 110.5,88.5C 110.231,84.0685 110.564,79.7352 111.5,75.5C 112.959,75.5674 114.292,75.2341 115.5,74.5C 116.675,74.281 117.675,74.6143 118.5,75.5C 116.369,76.1687 114.369,76.8354 112.5,77.5C 111.167,79.8333 111.167,82.1667 112.5,84.5C 113.152,85.7251 114.319,86.3917 116,86.5C 119.715,85.6179 121.882,83.2846 122.5,79.5C 123.5,79.5 124.5,79.5 125.5,79.5C 125.914,76.2569 126.914,73.2569 128.5,70.5C 129.451,71.9187 129.784,73.5853 129.5,75.5C 131.973,75.264 133.64,73.9307 134.5,71.5C 135.689,70.5713 137.022,70.238 138.5,70.5C 139.822,70.67 140.989,70.3366 142,69.5C 144.135,71.2785 146.635,71.9452 149.5,71.5C 149.5,70.5 149.5,69.5 149.5,68.5C 151.792,68.7564 153.959,68.4231 156,67.5C 156.249,64.8232 157.249,62.4899 159,60.5C 159.498,57.5184 159.665,54.5184 159.5,51.5C 157.5,51.5 155.5,51.5 153.5,51.5C 154.167,50.1667 154.833,48.8333 155.5,47.5C 158.078,42.9194 157.911,38.2528 155,33.5C 150.035,30.2595 145.535,26.4262 141.5,22C 139.975,20.9914 138.308,20.4914 136.5,20.5C 137.234,19.2921 137.567,17.9587 137.5,16.5C 134.812,16.1658 132.479,16.8325 130.5,18.5C 129.833,17.8333 129.167,17.1667 128.5,16.5C 130.229,15.8825 131.729,14.8825 133,13.5C 133.591,12.5165 133.257,11.8499 132,11.5C 129.332,12.3908 127.499,14.0574 126.5,16.5C 123.484,16.1594 120.818,14.9927 118.5,13C 114.959,11.9838 111.459,11.8171 108,12.5C 103.785,8.55998 98.7848,6.22664 93,5.5C 88.1562,5.8395 83.9895,7.67283 80.5,11C 77.854,11.4974 75.1873,11.6641 72.5,11.5C 71.8716,8.04512 69.8716,6.87846 66.5,8C 63.2878,10.1007 60.2878,12.4341 57.5,15C 57.7483,16.7491 58.7483,17.5824 60.5,17.5C 59.3702,19.3146 58.7036,21.3146 58.5,23.5C 55.8068,24.8466 53.1401,26.1799 50.5,27.5C 48.7041,26.2073 47.0375,24.7073 45.5,23C 49.3776,20.7695 49.3776,18.6029 45.5,16.5C 44.8182,17.2427 44.1515,17.9094 43.5,18.5C 43.631,17.7611 43.4643,17.0944 43,16.5C 42.3292,17.2524 41.4959,17.5858 40.5,17.5C 45.432,13.0229 51.0987,9.52291 57.5,7C 65.1188,3.95953 72.7855,1.45953 80.5,-0.5 Z"/></g>
<g><path style="opacity:1" fill="#4dd3fb" d="M 72.5,11.5 C 69.7594,11.7073 67.4261,12.7073 65.5,14.5C 63.816,15.5272 62.1494,16.5272 60.5,17.5C 58.7483,17.5824 57.7483,16.7491 57.5,15C 60.2878,12.4341 63.2878,10.1007 66.5,8C 69.8716,6.87846 71.8716,8.04512 72.5,11.5 Z"/></g>
<g><path style="opacity:1" fill="#5ed8fb" d="M 128.5,16.5 C 127.833,16.5 127.167,16.5 126.5,16.5C 127.499,14.0574 129.332,12.3908 132,11.5C 133.257,11.8499 133.591,12.5165 133,13.5C 131.729,14.8825 130.229,15.8825 128.5,16.5 Z"/></g>
<g><path style="opacity:1" fill="#fafbfb" d="M 43.5,18.5 C 42.8717,21.09 41.705,23.4234 40,25.5C 39.5026,28.146 39.3359,30.8127 39.5,33.5C 41.8333,33.5 44.1667,33.5 46.5,33.5C 45.1667,34.8333 43.8333,36.1667 42.5,37.5C 39.6769,38.9923 38.0102,41.3257 37.5,44.5C 36.223,50.6452 37.8897,55.9785 42.5,60.5C 41.8333,60.5 41.5,60.8333 41.5,61.5C 40.1882,62.1451 39.1882,63.1451 38.5,64.5C 39.8462,67.8546 41.1796,71.1879 42.5,74.5C 42.811,75.4778 43.4777,76.1445 44.5,76.5C 45.728,71.4815 45.728,66.4815 44.5,61.5C 47.5,62.1667 50.5,62.8333 53.5,63.5C 55.0261,65.13 57.0261,65.9633 59.5,66C 60.3805,66.7083 61.0472,67.5416 61.5,68.5C 60.4502,68.9046 60.4502,69.5712 61.5,70.5C 56.7616,71.9417 56.4283,73.9417 60.5,76.5C 55.7617,86.4307 58.7617,90.0973 69.5,87.5C 69.1826,84.4281 69.5159,81.4281 70.5,78.5C 72.7644,79.5382 73.0978,81.0382 71.5,83C 71.6387,84.301 72.3054,85.1344 73.5,85.5C 76.2099,85.1923 78.8766,84.8589 81.5,84.5C 82.404,85.209 82.7373,86.209 82.5,87.5C 80.9582,88.3007 79.2915,88.634 77.5,88.5C 70.4935,90.1687 63.4935,92.002 56.5,94C 54.5612,95.4321 53.2279,97.2654 52.5,99.5C 52.0074,101.806 51.6741,104.139 51.5,106.5C 49.8564,106.81 48.8564,107.81 48.5,109.5C 47.8333,109.5 47.1667,109.5 46.5,109.5C 37.4121,110.534 31.0788,115.2 27.5,123.5C 25.5273,124.806 23.8606,126.473 22.5,128.5C 18.4302,131.06 14.7635,134.227 11.5,138C 10.0715,138.579 8.7382,138.412 7.5,137.5C 4.03218,130.096 1.36551,122.429 -0.5,114.5C -0.5,105.5 -0.5,96.5 -0.5,87.5C 0.221579,87.0825 0.721579,86.4158 1,85.5C 1.49796,82.5184 1.66463,79.5184 1.5,76.5C 4.96389,57.565 13.6306,41.565 27.5,28.5C 31.1002,26.5698 34.1002,23.9031 36.5,20.5C 37.2623,18.7376 38.5956,17.7376 40.5,17.5C 41.4959,17.5858 42.3292,17.2524 43,16.5C 43.4643,17.0944 43.631,17.7611 43.5,18.5 Z"/></g>
<g><path style="opacity:1" fill="#e1d0e2" d="M 126.5,16.5 C 127.167,16.5 127.833,16.5 128.5,16.5C 129.167,17.1667 129.833,17.8333 130.5,18.5C 128.278,19.5361 127.112,21.2028 127,23.5C 129.299,24.5796 131.466,24.2463 133.5,22.5C 133.64,24.1238 132.973,25.2904 131.5,26C 128.144,26.2148 124.811,26.2148 121.5,26C 121.746,31.272 124.412,35.1054 129.5,37.5C 128.761,37.369 128.094,37.5357 127.5,38C 128.519,40.5277 127.519,42.0277 124.5,42.5C 121.897,40.5834 119.563,38.4167 117.5,36C 120.167,35.3333 120.167,34.6667 117.5,34C 118.654,33.0862 118.487,32.2529 117,31.5C 114.344,33.1473 113.511,35.314 114.5,38C 113.806,40.7482 112.306,41.5815 110,40.5C 109.333,43.1667 108.667,43.1667 108,40.5C 105.956,41.772 104.122,41.4386 102.5,39.5C 102.984,40.7808 102.317,41.7808 100.5,42.5C 98.752,41.2106 98.4186,39.7106 99.5,38C 97.9297,36.6032 96.5964,35.1032 95.5,33.5C 96.4756,32.1851 97.4756,30.8518 98.5,29.5C 96.5179,26.1897 94.1846,23.1897 91.5,20.5C 89.3795,23.2383 87.3795,26.0717 85.5,29C 85.6387,30.301 86.3054,31.1344 87.5,31.5C 87.9175,32.2216 88.5842,32.7216 89.5,33C 88.8906,34.9483 88.224,36.7816 87.5,38.5C 85.7231,38.2137 84.0564,37.5471 82.5,36.5C 81.1374,37.1984 79.9707,37.1984 79,36.5C 77.622,38.854 76.122,38.854 74.5,36.5C 73.4163,36.685 72.4163,37.0183 71.5,37.5C 69.882,36.5489 68.5487,35.2156 67.5,33.5C 72.7234,27.2099 72.2234,21.8766 66,17.5C 65.5172,16.552 65.3505,15.552 65.5,14.5C 67.4261,12.7073 69.7594,11.7073 72.5,11.5C 75.1873,11.6641 77.854,11.4974 80.5,11C 83.9895,7.67283 88.1562,5.8395 93,5.5C 98.7848,6.22664 103.785,8.55998 108,12.5C 111.459,11.8171 114.959,11.9838 118.5,13C 120.818,14.9927 123.484,16.1594 126.5,16.5 Z"/></g>
<g><path style="opacity:1" fill="#4dd6fc" d="M 50.5,27.5 C 51.0306,30.8876 49.6973,32.8876 46.5,33.5C 44.1667,33.5 41.8333,33.5 39.5,33.5C 39.3359,30.8127 39.5026,28.146 40,25.5C 41.705,23.4234 42.8717,21.09 43.5,18.5C 44.1515,17.9094 44.8182,17.2427 45.5,16.5C 49.3776,18.6029 49.3776,20.7695 45.5,23C 47.0375,24.7073 48.7041,26.2073 50.5,27.5 Z"/></g>
<g><path style="opacity:1" fill="#47d4fc" d="M 95.5,33.5 C 93.9301,34.5593 92.5968,34.0593 91.5,32C 90.2068,31.51 88.8734,31.3433 87.5,31.5C 86.3054,31.1344 85.6387,30.301 85.5,29C 87.3795,26.0717 89.3795,23.2383 91.5,20.5C 94.1846,23.1897 96.5179,26.1897 98.5,29.5C 97.4756,30.8518 96.4756,32.1851 95.5,33.5 Z"/></g>
<g><path style="opacity:1" fill="#4ccff5" d="M 136.5,20.5 C 134.973,20.427 133.973,21.0937 133.5,22.5C 131.466,24.2463 129.299,24.5796 127,23.5C 127.112,21.2028 128.278,19.5361 130.5,18.5C 132.479,16.8325 134.812,16.1658 137.5,16.5C 137.567,17.9587 137.234,19.2921 136.5,20.5 Z"/></g>
<g><path style="opacity:1" fill="#eed3dc" d="M 136.5,20.5 C 138.308,20.4914 139.975,20.9914 141.5,22C 145.535,26.4262 150.035,30.2595 155,33.5C 157.911,38.2528 158.078,42.9194 155.5,47.5C 150.829,42.2992 145.829,37.2992 140.5,32.5C 138.457,33.5794 137.124,35.246 136.5,37.5C 134.141,38.7143 131.808,38.7143 129.5,37.5C 124.412,35.1054 121.746,31.272 121.5,26C 124.811,26.2148 128.144,26.2148 131.5,26C 132.973,25.2904 133.64,24.1238 133.5,22.5C 133.973,21.0937 134.973,20.427 136.5,20.5 Z"/></g>
<g><path style="opacity:0.8" fill="#b0b2b2" d="M 36.5,20.5 C 34.1002,23.9031 31.1002,26.5698 27.5,28.5C 29.8998,25.0969 32.8998,22.4302 36.5,20.5 Z"/></g>
<g><path style="opacity:1" fill="#c5b9e0" d="M 65.5,14.5 C 65.3505,15.552 65.5172,16.552 66,17.5C 72.2234,21.8766 72.7234,27.2099 67.5,33.5C 68.5487,35.2156 69.882,36.5489 71.5,37.5C 71.9528,38.4584 72.6195,39.2917 73.5,40C 72.1667,40.6667 70.8333,41.3333 69.5,42C 70.5,43.6667 71.5,45.3333 72.5,47C 71.944,47.3826 71.6107,47.8826 71.5,48.5C 70.5084,48.6716 69.8417,48.3382 69.5,47.5C 69.0825,46.7784 68.4158,46.2784 67.5,46C 69.8776,45.0255 69.5443,44.3589 66.5,44C 66.8333,43.6667 67.1667,43.3333 67.5,43C 66.2986,42.0975 65.4652,40.9308 65,39.5C 64.2303,38.4019 63.397,38.4019 62.5,39.5C 62.3184,37.4086 62.6518,35.4086 63.5,33.5C 60.9187,30.5961 59.252,27.2628 58.5,23.5C 58.7036,21.3146 59.3702,19.3146 60.5,17.5C 62.1494,16.5272 63.816,15.5272 65.5,14.5 Z"/></g>
<g><path style="opacity:1" fill="#d5c9e6" d="M 58.5,23.5 C 59.252,27.2628 60.9187,30.5961 63.5,33.5C 62.6518,35.4086 62.3184,37.4086 62.5,39.5C 59.6648,40.137 58.3315,41.637 58.5,44C 56.8333,44.6667 55.1667,44.6667 53.5,44C 54.4581,42.8525 54.1247,41.8525 52.5,41C 49.7244,40.9343 47.5577,39.7676 46,37.5C 44.6072,40.1251 43.4405,40.1251 42.5,37.5C 43.8333,36.1667 45.1667,34.8333 46.5,33.5C 49.6973,32.8876 51.0306,30.8876 50.5,27.5C 53.1401,26.1799 55.8068,24.8466 58.5,23.5 Z"/></g>
<g><path style="opacity:1" fill="#d2b5c2" d="M 155.5,47.5 C 154.833,48.8333 154.167,50.1667 153.5,51.5C 153.167,52.1667 152.833,52.8333 152.5,53.5C 152.167,53.5 151.833,53.5 151.5,53.5C 151.986,50.2447 150.986,47.578 148.5,45.5C 144.865,43.8384 141.198,42.5051 137.5,41.5C 137.5,42.5 137.5,43.5 137.5,44.5C 134.761,44.7066 132.427,45.7066 130.5,47.5C 128.403,47.0234 126.403,46.3567 124.5,45.5C 124.082,44.7784 123.416,44.2784 122.5,44C 123.416,43.7216 124.082,43.2216 124.5,42.5C 127.519,42.0277 128.519,40.5277 127.5,38C 128.094,37.5357 128.761,37.369 129.5,37.5C 131.808,38.7143 134.141,38.7143 136.5,37.5C 137.124,35.246 138.457,33.5794 140.5,32.5C 145.829,37.2992 150.829,42.2992 155.5,47.5 Z"/></g>
<g><path style="opacity:1" fill="#c4acbd" d="M 87.5,38.5 C 87.6107,39.1174 87.944,39.6174 88.5,40C 86.6161,40.2163 84.9494,40.883 83.5,42C 85.6606,43.636 86.9939,45.8027 87.5,48.5C 87.5,49.5 87.5,50.5 87.5,51.5C 85.0722,53.0435 82.4056,54.0435 79.5,54.5C 79.9175,53.7784 80.5842,53.2784 81.5,53C 80.5,52.6667 79.5,52.3333 78.5,52C 78.8333,51.6667 79.1667,51.3333 79.5,51C 76.7206,50.439 74.054,49.6056 71.5,48.5C 71.6107,47.8826 71.944,47.3826 72.5,47C 71.5,45.3333 70.5,43.6667 69.5,42C 70.8333,41.3333 72.1667,40.6667 73.5,40C 72.6195,39.2917 71.9528,38.4584 71.5,37.5C 72.4163,37.0183 73.4163,36.685 74.5,36.5C 76.122,38.854 77.622,38.854 79,36.5C 79.9707,37.1984 81.1374,37.1984 82.5,36.5C 84.0564,37.5471 85.7231,38.2137 87.5,38.5 Z"/></g>
<g><path style="opacity:1" fill="#b8a9ce" d="M 87.5,31.5 C 88.8734,31.3433 90.2068,31.51 91.5,32C 92.5968,34.0593 93.9301,34.5593 95.5,33.5C 96.5964,35.1032 97.9297,36.6032 99.5,38C 98.4186,39.7106 98.752,41.2106 100.5,42.5C 100.5,43.5 100.5,44.5 100.5,45.5C 99.448,45.3505 98.448,45.5172 97.5,46C 97.8333,46.3333 98.1667,46.6667 98.5,47C 97.5842,47.2784 96.9175,47.7784 96.5,48.5C 94.1612,46.4589 91.4945,45.1256 88.5,44.5C 88.5,45.5 88.5,46.5 88.5,47.5C 88.5,48.1667 88.1667,48.5 87.5,48.5C 86.9939,45.8027 85.6606,43.636 83.5,42C 84.9494,40.883 86.6161,40.2163 88.5,40C 87.944,39.6174 87.6107,39.1174 87.5,38.5C 88.224,36.7816 88.8906,34.9483 89.5,33C 88.5842,32.7216 87.9175,32.2216 87.5,31.5 Z"/></g>
<g><path style="opacity:1" fill="#beafd4" d="M 42.5,37.5 C 43.4405,40.1251 44.6072,40.1251 46,37.5C 47.5577,39.7676 49.7244,40.9343 52.5,41C 54.1247,41.8525 54.4581,42.8525 53.5,44C 55.1667,44.6667 56.8333,44.6667 58.5,44C 58.3315,41.637 59.6648,40.137 62.5,39.5C 62.2642,42.9139 61.5975,46.2473 60.5,49.5C 59.4495,50.8848 58.1161,51.8848 56.5,52.5C 53.6714,51.2533 51.0048,49.7533 48.5,48C 48.8333,47.6667 49.1667,47.3333 49.5,47C 47.8231,45.0053 46.3231,42.8386 45,40.5C 42.5229,41.9073 40.0229,43.2406 37.5,44.5C 38.0102,41.3257 39.6769,38.9923 42.5,37.5 Z"/></g>
<g><path style="opacity:1" fill="#ac93a8" d="M 151.5,53.5 C 149.273,57.3904 145.94,59.7238 141.5,60.5C 142.167,59.1667 142.833,57.8333 143.5,56.5C 145.296,55.2073 146.963,53.7073 148.5,52C 145.572,48.8304 141.906,46.6637 137.5,45.5C 135.055,47.0189 132.721,48.6856 130.5,50.5C 128.418,50.472 126.584,51.1387 125,52.5C 121.47,52.6561 117.97,51.9894 114.5,50.5C 114.5,48.5 114.5,46.5 114.5,44.5C 117.881,44.4595 121.214,44.7929 124.5,45.5C 126.403,46.3567 128.403,47.0234 130.5,47.5C 132.427,45.7066 134.761,44.7066 137.5,44.5C 137.5,43.5 137.5,42.5 137.5,41.5C 141.198,42.5051 144.865,43.8384 148.5,45.5C 150.986,47.578 151.986,50.2447 151.5,53.5 Z"/></g>
<g><path style="opacity:1" fill="#9684b4" d="M 96.5,48.5 C 96.8333,49.1667 97.1667,49.8333 97.5,50.5C 95.4508,50.7058 95.1175,51.5391 96.5,53C 96,53.5 95.5,54 95,54.5C 91.4888,53.8139 89.3222,51.4805 88.5,47.5C 88.5,46.5 88.5,45.5 88.5,44.5C 91.4945,45.1256 94.1612,46.4589 96.5,48.5 Z"/></g>
<g><path style="opacity:1" fill="#c0a4b4" d="M 124.5,42.5 C 124.082,43.2216 123.416,43.7216 122.5,44C 123.416,44.2784 124.082,44.7784 124.5,45.5C 121.214,44.7929 117.881,44.4595 114.5,44.5C 114.5,46.5 114.5,48.5 114.5,50.5C 111.515,55.505 107.182,57.1717 101.5,55.5C 101.262,53.5217 99.9289,51.8551 97.5,50.5C 97.1667,49.8333 96.8333,49.1667 96.5,48.5C 96.9175,47.7784 97.5842,47.2784 98.5,47C 98.1667,46.6667 97.8333,46.3333 97.5,46C 98.448,45.5172 99.448,45.3505 100.5,45.5C 100.5,44.5 100.5,43.5 100.5,42.5C 102.317,41.7808 102.984,40.7808 102.5,39.5C 104.122,41.4386 105.956,41.772 108,40.5C 108.667,43.1667 109.333,43.1667 110,40.5C 112.306,41.5815 113.806,40.7482 114.5,38C 113.511,35.314 114.344,33.1473 117,31.5C 118.487,32.2529 118.654,33.0862 117.5,34C 120.167,34.6667 120.167,35.3333 117.5,36C 119.563,38.4167 121.897,40.5834 124.5,42.5 Z"/></g>
<g><path style="opacity:1" fill="#8d747a" d="M 114.5,50.5 C 117.97,51.9894 121.47,52.6561 125,52.5C 126.584,51.1387 128.418,50.472 130.5,50.5C 128.862,51.7046 128.529,53.0379 129.5,54.5C 129.634,56.2915 129.301,57.9582 128.5,59.5C 126.772,60.379 124.939,61.0457 123,61.5C 119.208,60.6898 115.375,60.3564 111.5,60.5C 111.762,59.0222 111.429,57.6888 110.5,56.5C 107.329,58.0884 103.995,59.0884 100.5,59.5C 98.1175,59.639 96.1175,58.9723 94.5,57.5C 96.7014,56.4336 99.0347,55.767 101.5,55.5C 107.182,57.1717 111.515,55.505 114.5,50.5 Z"/></g>
<g><path style="opacity:1" fill="#887c95" d="M 143.5,56.5 C 143.53,55.5028 143.03,54.8361 142,54.5C 138.282,55.905 134.949,55.2384 132,52.5C 130.989,53.0556 130.156,53.7222 129.5,54.5C 128.529,53.0379 128.862,51.7046 130.5,50.5C 132.721,48.6856 135.055,47.0189 137.5,45.5C 141.906,46.6637 145.572,48.8304 148.5,52C 146.963,53.7073 145.296,55.2073 143.5,56.5 Z"/></g>
<g><path style="opacity:1" fill="#47d7fe" d="M 153.5,51.5 C 155.5,51.5 157.5,51.5 159.5,51.5C 159.665,54.5184 159.498,57.5184 159,60.5C 157.249,62.4899 156.249,64.8232 156,67.5C 153.959,68.4231 151.792,68.7564 149.5,68.5C 149.5,69.5 149.5,70.5 149.5,71.5C 146.635,71.9452 144.135,71.2785 142,69.5C 140.989,70.3366 139.822,70.67 138.5,70.5C 139.048,68.3736 139.715,66.3736 140.5,64.5C 142.264,65.7122 143.93,65.3788 145.5,63.5C 148.336,60.4873 150.669,57.154 152.5,53.5C 152.833,52.8333 153.167,52.1667 153.5,51.5 Z"/></g>
<g><path style="opacity:1" fill="#8d7a93" d="M 88.5,47.5 C 89.3222,51.4805 91.4888,53.8139 95,54.5C 95.5,54 96,53.5 96.5,53C 95.1175,51.5391 95.4508,50.7058 97.5,50.5C 99.9289,51.8551 101.262,53.5217 101.5,55.5C 99.0347,55.767 96.7014,56.4336 94.5,57.5C 92.7162,57.1075 91.0495,56.4408 89.5,55.5C 89.3404,53.847 88.6737,52.5137 87.5,51.5C 87.5,50.5 87.5,49.5 87.5,48.5C 88.1667,48.5 88.5,48.1667 88.5,47.5 Z"/></g>
<g><path style="opacity:1" fill="#8b7e9a" d="M 69.5,47.5 C 69.8417,48.3382 70.5084,48.6716 71.5,48.5C 74.054,49.6056 76.7206,50.439 79.5,51C 79.1667,51.3333 78.8333,51.6667 78.5,52C 79.5,52.3333 80.5,52.6667 81.5,53C 80.5842,53.2784 79.9175,53.7784 79.5,54.5C 77.4362,54.7619 76.1029,55.9286 75.5,58C 73.8659,58.4935 72.1992,58.6602 70.5,58.5C 70.7373,59.791 70.404,60.791 69.5,61.5C 68.7204,58.8992 67.0537,56.8992 64.5,55.5C 63.1667,56.5 61.8333,57.5 60.5,58.5C 59.2613,58.0576 58.2613,57.3909 57.5,56.5C 60.1389,53.1492 63.3056,52.8158 67,55.5C 68.0084,55.0183 69.175,54.8516 70.5,55C 71.1667,54.3333 71.8333,53.6667 72.5,53C 71.8384,51.6684 70.6718,50.5018 69,49.5C 68.3083,48.5632 68.475,47.8966 69.5,47.5 Z"/></g>
<g><path style="opacity:1" fill="#9686ba" d="M 69.5,47.5 C 68.475,47.8966 68.3083,48.5632 69,49.5C 70.6718,50.5018 71.8384,51.6684 72.5,53C 71.8333,53.6667 71.1667,54.3333 70.5,55C 69.175,54.8516 68.0084,55.0183 67,55.5C 63.3056,52.8158 60.1389,53.1492 57.5,56.5C 54.3563,53.9647 51.3563,54.2981 48.5,57.5C 50.1897,59.5193 51.8564,61.5193 53.5,63.5C 50.5,62.8333 47.5,62.1667 44.5,61.5C 44.1583,60.6618 43.4916,60.3284 42.5,60.5C 37.8897,55.9785 36.223,50.6452 37.5,44.5C 40.0229,43.2406 42.5229,41.9073 45,40.5C 46.3231,42.8386 47.8231,45.0053 49.5,47C 49.1667,47.3333 48.8333,47.6667 48.5,48C 51.0048,49.7533 53.6714,51.2533 56.5,52.5C 58.1161,51.8848 59.4495,50.8848 60.5,49.5C 61.5975,46.2473 62.2642,42.9139 62.5,39.5C 63.397,38.4019 64.2303,38.4019 65,39.5C 65.4652,40.9308 66.2986,42.0975 67.5,43C 67.1667,43.3333 66.8333,43.6667 66.5,44C 69.5443,44.3589 69.8776,45.0255 67.5,46C 68.4158,46.2784 69.0825,46.7784 69.5,47.5 Z"/></g>
<g><path style="opacity:1" fill="#3bcff8" d="M 57.5,56.5 C 58.2613,57.3909 59.2613,58.0576 60.5,58.5C 61.8333,57.5 63.1667,56.5 64.5,55.5C 67.0537,56.8992 68.7204,58.8992 69.5,61.5C 68.0256,62.4363 67.0256,63.7697 66.5,65.5C 65.078,66.925 63.4113,67.925 61.5,68.5C 61.0472,67.5416 60.3805,66.7083 59.5,66C 57.0261,65.9633 55.0261,65.13 53.5,63.5C 51.8564,61.5193 50.1897,59.5193 48.5,57.5C 51.3563,54.2981 54.3563,53.9647 57.5,56.5 Z"/></g>
<g><path style="opacity:1" fill="#9b2d27" d="M 89.5,55.5 C 91.0495,56.4408 92.7162,57.1075 94.5,57.5C 96.1175,58.9723 98.1175,59.639 100.5,59.5C 103.995,59.0884 107.329,58.0884 110.5,56.5C 111.429,57.6888 111.762,59.0222 111.5,60.5C 111.5,61.1667 111.5,61.8333 111.5,62.5C 111.5,64.8333 111.5,67.1667 111.5,69.5C 110.735,70.6602 109.735,71.6602 108.5,72.5C 107.494,72.0623 107.494,71.3957 108.5,70.5C 108.043,69.7025 107.376,69.3691 106.5,69.5C 106.412,63.6769 103.412,61.3436 97.5,62.5C 95.5695,62.7706 94.2362,63.7706 93.5,65.5C 93.631,64.7611 93.4643,64.0944 93,63.5C 91.4878,64.2567 90.1545,65.2567 89,66.5C 88.0228,65.2264 87.1894,65.2264 86.5,66.5C 86.1667,66.5 85.8333,66.5 85.5,66.5C 84.7377,64.7376 83.4044,63.7376 81.5,63.5C 80.5269,61.9317 80.3603,60.265 81,58.5C 83.8595,57.5767 86.6929,56.5767 89.5,55.5 Z"/></g>
<g><path style="opacity:1" fill="#36c9f8" d="M 143.5,56.5 C 142.833,57.8333 142.167,59.1667 141.5,60.5C 141.167,61.8333 140.833,63.1667 140.5,64.5C 139.715,66.3736 139.048,68.3736 138.5,70.5C 137.022,70.238 135.689,70.5713 134.5,71.5C 133.64,73.9307 131.973,75.264 129.5,75.5C 129.784,73.5853 129.451,71.9187 128.5,70.5C 127.194,69.5326 126.527,68.1993 126.5,66.5C 127.015,64.1055 127.681,61.7722 128.5,59.5C 129.301,57.9582 129.634,56.2915 129.5,54.5C 130.156,53.7222 130.989,53.0556 132,52.5C 134.949,55.2384 138.282,55.905 142,54.5C 143.03,54.8361 143.53,55.5028 143.5,56.5 Z"/></g>
<g><path style="opacity:0.996" fill="#f1f7fb" d="M 151.5,53.5 C 151.833,53.5 152.167,53.5 152.5,53.5C 150.669,57.154 148.336,60.4873 145.5,63.5C 143.93,65.3788 142.264,65.7122 140.5,64.5C 140.833,63.1667 141.167,61.8333 141.5,60.5C 145.94,59.7238 149.273,57.3904 151.5,53.5 Z"/></g>
<g><path style="opacity:1" fill="#7b6976" d="M 87.5,51.5 C 88.6737,52.5137 89.3404,53.847 89.5,55.5C 86.6929,56.5767 83.8595,57.5767 81,58.5C 80.3603,60.265 80.5269,61.9317 81.5,63.5C 79.2646,63.2053 77.2646,63.5386 75.5,64.5C 74.6851,65.4293 73.8518,66.4293 73,67.5C 71.2111,65.771 69.0444,65.1043 66.5,65.5C 67.0256,63.7697 68.0256,62.4363 69.5,61.5C 70.404,60.791 70.7373,59.791 70.5,58.5C 72.1992,58.6602 73.8659,58.4935 75.5,58C 76.1029,55.9286 77.4362,54.7619 79.5,54.5C 82.4056,54.0435 85.0722,53.0435 87.5,51.5 Z"/></g>
<g><path style="opacity:1" fill="#c9432a" d="M 93.5,65.5 C 92.8902,66.391 92.5569,67.391 92.5,68.5C 90.9028,69.0905 89.5695,70.0905 88.5,71.5C 87.8281,70.0508 87.1614,68.7175 86.5,67.5C 86.5,67.1667 86.5,66.8333 86.5,66.5C 87.1894,65.2264 88.0228,65.2264 89,66.5C 90.1545,65.2567 91.4878,64.2567 93,63.5C 93.4643,64.0944 93.631,64.7611 93.5,65.5 Z"/></g>
<g><path style="opacity:1" fill="#d6c3d0" d="M 128.5,59.5 C 127.681,61.7722 127.015,64.1055 126.5,66.5C 125.735,66.0766 124.902,65.7432 124,65.5C 117.85,70.4527 114.183,69.1194 113,61.5C 112.617,62.056 112.117,62.3893 111.5,62.5C 111.5,61.8333 111.5,61.1667 111.5,60.5C 115.375,60.3564 119.208,60.6898 123,61.5C 124.939,61.0457 126.772,60.379 128.5,59.5 Z"/></g>
<g><path style="opacity:1" fill="#3db8fd" d="M 41.5,61.5 C 44.8301,65.5561 45.1634,69.8894 42.5,74.5C 41.1796,71.1879 39.8462,67.8546 38.5,64.5C 39.1882,63.1451 40.1882,62.1451 41.5,61.5 Z"/></g>
<g><path style="opacity:1" fill="#ac99bf" d="M 97.5,62.5 C 99.1236,67.5697 100.79,72.2363 102.5,76.5C 100.473,76.6621 98.4727,76.4955 96.5,76C 95.2949,74.6244 93.9616,73.4577 92.5,72.5C 92.5,71.1667 92.5,69.8333 92.5,68.5C 92.5569,67.391 92.8902,66.391 93.5,65.5C 94.2362,63.7706 95.5695,62.7706 97.5,62.5 Z"/></g>
<g><path style="opacity:1" fill="#cdb9cb" d="M 75.5,64.5 C 77.2646,63.5386 79.2646,63.2053 81.5,63.5C 83.4044,63.7376 84.7377,64.7376 85.5,66.5C 85.1243,71.1813 82.791,72.5146 78.5,70.5C 77.0383,68.2377 76.0383,66.2377 75.5,64.5 Z"/></g>
<g><path style="opacity:1" fill="#46c9ef" d="M 41.5,61.5 C 41.5,60.8333 41.8333,60.5 42.5,60.5C 43.4916,60.3284 44.1583,60.6618 44.5,61.5C 45.728,66.4815 45.728,71.4815 44.5,76.5C 43.4777,76.1445 42.811,75.4778 42.5,74.5C 45.1634,69.8894 44.8301,65.5561 41.5,61.5 Z"/></g>
<g><path style="opacity:1" fill="#a38c99" d="M 126.5,66.5 C 126.527,68.1993 127.194,69.5326 128.5,70.5C 126.914,73.2569 125.914,76.2569 125.5,79.5C 124.5,79.5 123.5,79.5 122.5,79.5C 121.882,83.2846 119.715,85.6179 116,86.5C 114.319,86.3917 113.152,85.7251 112.5,84.5C 113.376,84.6309 114.043,84.2975 114.5,83.5C 113.95,81.3432 113.283,79.3432 112.5,77.5C 114.369,76.8354 116.369,76.1687 118.5,75.5C 117.675,74.6143 116.675,74.281 115.5,74.5C 114.136,72.8089 112.803,71.1423 111.5,69.5C 111.5,67.1667 111.5,64.8333 111.5,62.5C 112.117,62.3893 112.617,62.056 113,61.5C 114.183,69.1194 117.85,70.4527 124,65.5C 124.902,65.7432 125.735,66.0766 126.5,66.5 Z"/></g>
<g><path style="opacity:1" fill="#a795b6" d="M 75.5,64.5 C 76.0383,66.2377 77.0383,68.2377 78.5,70.5C 82.791,72.5146 85.1243,71.1813 85.5,66.5C 85.8333,66.5 86.1667,66.5 86.5,66.5C 86.5,66.8333 86.5,67.1667 86.5,67.5C 86.5,69.1667 86.5,70.8333 86.5,72.5C 84.1667,74.1667 82.1667,76.1667 80.5,78.5C 79.2642,76.9572 77.5976,75.9572 75.5,75.5C 72.6822,69.1669 70.0155,69.5002 67.5,76.5C 69.813,77.2733 72.1463,77.9399 74.5,78.5C 75.3567,79.7357 76.0234,81.069 76.5,82.5C 75.2299,83.2876 74.2299,84.2876 73.5,85.5C 72.3054,85.1344 71.6387,84.301 71.5,83C 73.0978,81.0382 72.7644,79.5382 70.5,78.5C 69.5159,81.4281 69.1826,84.4281 69.5,87.5C 58.7617,90.0973 55.7617,86.4307 60.5,76.5C 56.4283,73.9417 56.7616,71.9417 61.5,70.5C 60.4502,69.5712 60.4502,68.9046 61.5,68.5C 63.4113,67.925 65.078,66.925 66.5,65.5C 69.0444,65.1043 71.2111,65.771 73,67.5C 73.8518,66.4293 74.6851,65.4293 75.5,64.5 Z"/></g>
<g><path style="opacity:1" fill="#e37933" d="M 86.5,67.5 C 87.1614,68.7175 87.8281,70.0508 88.5,71.5C 89.5695,70.0905 90.9028,69.0905 92.5,68.5C 92.5,69.8333 92.5,71.1667 92.5,72.5C 92.5,75.1667 92.5,77.8333 92.5,80.5C 92.5,82.8333 92.5,85.1667 92.5,87.5C 92.1667,87.5 91.8333,87.5 91.5,87.5C 91.0375,82.8376 90.5375,78.1709 90,73.5C 89.6667,77.8333 89.3333,82.1667 89,86.5C 88.886,81.6573 88.0527,76.9906 86.5,72.5C 86.5,70.8333 86.5,69.1667 86.5,67.5 Z"/></g>
<g><path style="opacity:1" fill="#cd793c" d="M 106.5,69.5 C 107.376,69.3691 108.043,69.7025 108.5,70.5C 107.494,71.3957 107.494,72.0623 108.5,72.5C 109.735,71.6602 110.735,70.6602 111.5,69.5C 112.803,71.1423 114.136,72.8089 115.5,74.5C 114.292,75.2341 112.959,75.5674 111.5,75.5C 109.597,75.2041 107.93,74.5375 106.5,73.5C 106.5,72.1667 106.5,70.8333 106.5,69.5 Z"/></g>
<g><path style="opacity:1" fill="#d0adb4" d="M 97.5,62.5 C 103.412,61.3436 106.412,63.6769 106.5,69.5C 106.5,70.8333 106.5,72.1667 106.5,73.5C 105.728,74.6935 104.728,75.6935 103.5,76.5C 103.167,76.5 102.833,76.5 102.5,76.5C 100.79,72.2363 99.1236,67.5697 97.5,62.5 Z"/></g>
<g><path style="opacity:1" fill="#f4a94a" d="M 92.5,72.5 C 93.9616,73.4577 95.2949,74.6244 96.5,76C 98.4727,76.4955 100.473,76.6621 102.5,76.5C 101.531,77.3094 100.698,78.3094 100,79.5C 99.502,82.4816 99.3354,85.4816 99.5,88.5C 98.8333,88.5 98.1667,88.5 97.5,88.5C 98.2682,83.7793 97.1015,79.7793 94,76.5C 93.79,78.0581 93.29,79.3915 92.5,80.5C 92.5,77.8333 92.5,75.1667 92.5,72.5 Z"/></g>
<g><path style="opacity:1" fill="#ebb455" d="M 86.5,72.5 C 88.0527,76.9906 88.886,81.6573 89,86.5C 89.3333,82.1667 89.6667,77.8333 90,73.5C 90.5375,78.1709 91.0375,82.8376 91.5,87.5C 88.5,87.5 85.5,87.5 82.5,87.5C 82.7373,86.209 82.404,85.209 81.5,84.5C 81.822,82.2776 81.1554,80.4443 79.5,79C 79.7284,78.6012 80.0618,78.4346 80.5,78.5C 82.1667,76.1667 84.1667,74.1667 86.5,72.5 Z"/></g>
<g><path style="opacity:1" fill="#f7b04d" d="M 106.5,73.5 C 107.93,74.5375 109.597,75.2041 111.5,75.5C 110.564,79.7352 110.231,84.0685 110.5,88.5C 110.5,89.1667 110.167,89.5 109.5,89.5C 109.5,89.1667 109.5,88.8333 109.5,88.5C 109.976,84.6161 108.976,81.2827 106.5,78.5C 105.808,79.0253 105.308,79.6919 105,80.5C 104.503,83.146 104.336,85.8127 104.5,88.5C 103.517,84.7016 103.183,80.7016 103.5,76.5C 104.728,75.6935 105.728,74.6935 106.5,73.5 Z"/></g>
<g><path style="opacity:1" fill="#cbacb9" d="M 137.5,75.5 C 141.254,76.8276 142.421,79.4942 141,83.5C 140.283,84.0442 139.783,84.7109 139.5,85.5C 136.903,85.3568 134.569,84.5234 132.5,83C 133.895,80.3015 135.562,77.8015 137.5,75.5 Z"/></g>
<g><path style="opacity:1" fill="#ffd64d" d="M 109.5,88.5 C 107.833,88.5 106.167,88.5 104.5,88.5C 104.336,85.8127 104.503,83.146 105,80.5C 105.308,79.6919 105.808,79.0253 106.5,78.5C 108.976,81.2827 109.976,84.6161 109.5,88.5 Z"/></g>
<g><path style="opacity:1" fill="#ac7e57" d="M 112.5,77.5 C 113.283,79.3432 113.95,81.3432 114.5,83.5C 114.043,84.2975 113.376,84.6309 112.5,84.5C 111.167,82.1667 111.167,79.8333 112.5,77.5 Z"/></g>
<g><path style="opacity:1" fill="#96838b" d="M 132.5,77.5 C 131.758,79.4258 130.758,81.2591 129.5,83C 130.257,84.5122 131.257,85.8455 132.5,87C 131.756,88.0386 130.756,88.5386 129.5,88.5C 126.404,89.0934 124.071,88.0934 122.5,85.5C 124.259,84.246 125.759,84.5794 127,86.5C 127.333,83.8333 127.667,81.1667 128,78.5C 129.356,77.6198 130.856,77.2865 132.5,77.5 Z"/></g>
<g><path style="opacity:1" fill="#f6eb5e" d="M 102.5,76.5 C 102.833,76.5 103.167,76.5 103.5,76.5C 103.183,80.7016 103.517,84.7016 104.5,88.5C 106.167,88.5 107.833,88.5 109.5,88.5C 109.5,88.8333 109.5,89.1667 109.5,89.5C 106.061,89.7471 102.728,89.4137 99.5,88.5C 99.3354,85.4816 99.502,82.4816 100,79.5C 100.698,78.3094 101.531,77.3094 102.5,76.5 Z"/></g>
<g><path style="opacity:1" fill="#8e797c" d="M 80.5,78.5 C 80.0618,78.4346 79.7284,78.6012 79.5,79C 81.1554,80.4443 81.822,82.2776 81.5,84.5C 78.8766,84.8589 76.2099,85.1923 73.5,85.5C 74.2299,84.2876 75.2299,83.2876 76.5,82.5C 76.0234,81.069 75.3567,79.7357 74.5,78.5C 72.1463,77.9399 69.813,77.2733 67.5,76.5C 70.0155,69.5002 72.6822,69.1669 75.5,75.5C 77.5976,75.9572 79.2642,76.9572 80.5,78.5 Z"/></g>
<g><path style="opacity:1" fill="#f9d955" d="M 97.5,88.5 C 95.7085,88.634 94.0418,88.3007 92.5,87.5C 92.5,85.1667 92.5,82.8333 92.5,80.5C 93.29,79.3915 93.79,78.0581 94,76.5C 97.1015,79.7793 98.2682,83.7793 97.5,88.5 Z"/></g>
<g><path style="opacity:0.914" fill="#a5a7a6" d="M 1.5,76.5 C 1.66463,79.5184 1.49796,82.5184 1,85.5C 0.721579,86.4158 0.221579,87.0825 -0.5,87.5C -0.5,85.1667 -0.5,82.8333 -0.5,80.5C 0.166667,79.1667 0.833333,77.8333 1.5,76.5 Z"/></g>
<g><path style="opacity:1" fill="#8d95b0" d="M 137.5,75.5 C 135.562,77.8015 133.895,80.3015 132.5,83C 134.569,84.5234 136.903,85.3568 139.5,85.5C 139.719,89.5274 138.552,90.1941 136,87.5C 133.984,89.6082 131.817,89.9416 129.5,88.5C 130.756,88.5386 131.756,88.0386 132.5,87C 131.257,85.8455 130.257,84.5122 129.5,83C 130.758,81.2591 131.758,79.4258 132.5,77.5C 133.815,76.5244 135.148,75.5244 136.5,74.5C 137.107,74.6236 137.44,74.9569 137.5,75.5 Z"/></g>
<g><path style="opacity:0.914" fill="#a5a7a6" d="M 193.5,76.5 C 194.167,77.8333 194.833,79.1667 195.5,80.5C 195.5,82.8333 195.5,85.1667 195.5,87.5C 194.778,87.0825 194.278,86.4158 194,85.5C 193.502,82.5184 193.335,79.5184 193.5,76.5 Z"/></g>
<g><path style="opacity:1" fill="#9386a1" d="M 54.5,80.5 C 55.4584,80.9528 56.2917,81.6195 57,82.5C 57.2694,85.3516 58.1028,88.0182 59.5,90.5C 53.7194,91.1995 51.5528,88.5329 53,82.5C 53.7172,81.9558 54.2172,81.2891 54.5,80.5 Z"/></g>
<g><path style="opacity:1" fill="#4ae3fe" d="M 99.5,88.5 C 102.728,89.4137 106.061,89.7471 109.5,89.5C 110.167,89.5 110.5,89.1667 110.5,88.5C 115.005,88.2705 119.339,88.9372 123.5,90.5C 128.397,94.0508 133.064,98.0508 137.5,102.5C 135.437,105.388 133.603,108.388 132,111.5C 130.847,108.289 130.18,104.956 130,101.5C 125.007,97.0182 119.341,95.0182 113,95.5C 111.167,96.6667 109.667,98.1667 108.5,100C 109.132,103.27 109.799,106.437 110.5,109.5C 110.751,111.17 111.418,112.67 112.5,114C 115.276,115.037 118.11,115.87 121,116.5C 122.876,116.475 124.376,115.809 125.5,114.5C 126.496,114.586 127.329,114.252 128,113.5C 128.783,115.433 128.283,116.933 126.5,118C 113.902,120.726 106.902,115.726 105.5,103C 103.246,101.623 101.08,100.123 99,98.5C 98.6667,98.8333 98.3333,99.1667 98,99.5C 95.0758,99.3743 92.4092,98.041 90,95.5C 88.6361,96.2583 87.4695,95.7583 86.5,94C 87.2529,92.513 88.0862,92.3463 89,93.5C 91.0693,92.7362 93.236,92.2362 95.5,92C 97.5444,91.5017 98.8777,90.335 99.5,88.5 Z"/></g>
<g><path style="opacity:1" fill="#2dc4f7" d="M 77.5,88.5 C 75.0784,90.268 72.4117,91.768 69.5,93C 68.2888,93.8928 68.2888,94.7261 69.5,95.5C 74.0895,95.0645 78.7562,95.5645 83.5,97C 86.1227,100.412 88.6227,103.912 91,107.5C 92.5581,106.655 93.5581,107.321 94,109.5C 94.6914,107.109 95.6914,107.109 97,109.5C 97.6667,108.167 98.3333,108.167 99,109.5C 99.9745,107.122 100.641,107.456 101,110.5C 106.896,116.661 113.729,120.661 121.5,122.5C 122.415,124.918 123.915,126.918 126,128.5C 127.749,127.701 129.082,128.368 130,130.5C 131.554,128.073 132.721,128.073 133.5,130.5C 131.557,131.938 129.724,133.604 128,135.5C 126.984,134.366 126.317,134.699 126,136.5C 123.945,136.152 121.945,136.819 120,138.5C 118.044,137.784 115.878,136.784 113.5,135.5C 116.907,132.366 116.574,129.199 112.5,126C 110.5,125.333 108.5,124.667 106.5,124C 98.8333,123.667 91.1667,123.333 83.5,123C 81.3825,122.74 79.7158,121.74 78.5,120C 74.4267,119.212 70.4267,118.212 66.5,117C 64.1641,111.163 61.1641,105.663 57.5,100.5C 55.9547,99.5481 54.288,99.2148 52.5,99.5C 53.2279,97.2654 54.5612,95.4321 56.5,94C 63.4935,92.002 70.4935,90.1687 77.5,88.5 Z"/></g>
<g><path style="opacity:1" fill="#ddd7ef" d="M 74.5,98.5 C 78.2095,98.2247 81.0428,99.558 83,102.5C 83.6667,105.833 83.6667,109.167 83,112.5C 81.4167,113.971 79.5834,114.971 77.5,115.5C 75.8967,115.688 74.5634,115.188 73.5,114C 74.1667,113.667 74.8333,113.333 75.5,113C 73.9419,112.79 72.6085,112.29 71.5,111.5C 73.1667,111.5 74.8333,111.5 76.5,111.5C 78.8896,111.315 79.8896,109.982 79.5,107.5C 79.7142,105.058 78.7142,103.392 76.5,102.5C 74.9581,101.837 73.2914,101.17 71.5,100.5C 72.6016,99.8243 73.6016,99.1577 74.5,98.5 Z"/></g>
<g><path style="opacity:1" fill="#3e9db4" d="M 76.5,102.5 C 78.7142,103.392 79.7142,105.058 79.5,107.5C 79.8896,109.982 78.8896,111.315 76.5,111.5C 78.3484,107.881 77.5151,105.215 74,103.5C 70.4038,105.202 69.5705,107.868 71.5,111.5C 68.5744,109.659 68.0744,107.325 70,104.5C 71.7889,102.771 73.9556,102.104 76.5,102.5 Z"/></g>
<g><path style="opacity:1" fill="#1b1f26" d="M 76.5,111.5 C 74.8333,111.5 73.1667,111.5 71.5,111.5C 69.5705,107.868 70.4038,105.202 74,103.5C 77.5151,105.215 78.3484,107.881 76.5,111.5 Z"/></g>
<g><path style="opacity:1" fill="#3fd1f9" d="M 82.5,87.5 C 85.5,87.5 88.5,87.5 91.5,87.5C 91.8333,87.5 92.1667,87.5 92.5,87.5C 94.0418,88.3007 95.7085,88.634 97.5,88.5C 98.1667,88.5 98.8333,88.5 99.5,88.5C 98.8777,90.335 97.5444,91.5017 95.5,92C 93.236,92.2362 91.0693,92.7362 89,93.5C 88.0862,92.3463 87.2529,92.513 86.5,94C 87.4695,95.7583 88.6361,96.2583 90,95.5C 92.4092,98.041 95.0758,99.3743 98,99.5C 98.3333,99.1667 98.6667,98.8333 99,98.5C 101.08,100.123 103.246,101.623 105.5,103C 106.902,115.726 113.902,120.726 126.5,118C 128.283,116.933 128.783,115.433 128,113.5C 127.329,114.252 126.496,114.586 125.5,114.5C 125.5,114.167 125.5,113.833 125.5,113.5C 126.117,113.389 126.617,113.056 127,112.5C 129.21,101.546 125.044,97.2124 114.5,99.5C 112.589,99.5743 111.422,100.574 111,102.5C 110.503,104.81 110.337,107.143 110.5,109.5C 109.799,106.437 109.132,103.27 108.5,100C 109.667,98.1667 111.167,96.6667 113,95.5C 119.341,95.0182 125.007,97.0182 130,101.5C 130.18,104.956 130.847,108.289 132,111.5C 133.603,108.388 135.437,105.388 137.5,102.5C 133.064,98.0508 128.397,94.0508 123.5,90.5C 126.796,92.7207 130.463,93.8873 134.5,94C 140.007,96.8061 142.007,101.306 140.5,107.5C 140.368,115.891 138.035,123.558 133.5,130.5C 132.721,128.073 131.554,128.073 130,130.5C 129.082,128.368 127.749,127.701 126,128.5C 123.915,126.918 122.415,124.918 121.5,122.5C 113.729,120.661 106.896,116.661 101,110.5C 100.641,107.456 99.9745,107.122 99,109.5C 98.3333,108.167 97.6667,108.167 97,109.5C 95.6914,107.109 94.6914,107.109 94,109.5C 93.5581,107.321 92.5581,106.655 91,107.5C 88.6227,103.912 86.1227,100.412 83.5,97C 78.7562,95.5645 74.0895,95.0645 69.5,95.5C 68.2888,94.7261 68.2888,93.8928 69.5,93C 72.4117,91.768 75.0784,90.268 77.5,88.5C 79.2915,88.634 80.9582,88.3007 82.5,87.5 Z"/></g>
<g><path style="opacity:1" fill="#bebae3" d="M 114.5,99.5 C 111.981,101.641 111.981,103.641 114.5,105.5C 114.263,106.791 114.596,107.791 115.5,108.5C 115.5,108.833 115.5,109.167 115.5,109.5C 115.979,111.844 117.479,113.178 120,113.5C 121.301,113.361 122.134,112.695 122.5,111.5C 123.167,111.167 123.833,110.833 124.5,110.5C 124.263,111.791 124.596,112.791 125.5,113.5C 125.5,113.833 125.5,114.167 125.5,114.5C 124.376,115.809 122.876,116.475 121,116.5C 118.11,115.87 115.276,115.037 112.5,114C 111.418,112.67 110.751,111.17 110.5,109.5C 110.337,107.143 110.503,104.81 111,102.5C 111.422,100.574 112.589,99.5743 114.5,99.5 Z"/></g>
<g><path style="opacity:1" fill="#1f242c" d="M 122.5,111.5 C 119.812,111.834 117.479,111.168 115.5,109.5C 115.5,109.167 115.5,108.833 115.5,108.5C 115.652,104.513 117.652,103.013 121.5,104C 123.837,106.194 124.17,108.694 122.5,111.5 Z"/></g>
<g><path style="opacity:1" fill="#43b2b9" d="M 124.5,110.5 C 123.833,110.833 123.167,111.167 122.5,111.5C 124.17,108.694 123.837,106.194 121.5,104C 117.652,103.013 115.652,104.513 115.5,108.5C 114.596,107.791 114.263,106.791 114.5,105.5C 117.255,101.96 120.421,101.627 124,104.5C 124.495,106.473 124.662,108.473 124.5,110.5 Z"/></g>
<g><path style="opacity:0.984" fill="#e8e3ef" d="M 125.5,113.5 C 124.596,112.791 124.263,111.791 124.5,110.5C 124.662,108.473 124.495,106.473 124,104.5C 120.421,101.627 117.255,101.96 114.5,105.5C 111.981,103.641 111.981,101.641 114.5,99.5C 125.044,97.2124 129.21,101.546 127,112.5C 126.617,113.056 126.117,113.389 125.5,113.5 Z"/></g>
<g><path style="opacity:1" fill="#a4afe6" d="M 74.5,98.5 C 73.6016,99.1577 72.6016,99.8243 71.5,100.5C 73.2914,101.17 74.9581,101.837 76.5,102.5C 73.9556,102.104 71.7889,102.771 70,104.5C 68.0744,107.325 68.5744,109.659 71.5,111.5C 72.6085,112.29 73.9419,112.79 75.5,113C 74.8333,113.333 74.1667,113.667 73.5,114C 74.5634,115.188 75.8967,115.688 77.5,115.5C 66.5797,117.75 63.0797,113.417 67,102.5C 68.7155,99.6026 71.2155,98.2693 74.5,98.5 Z"/></g>
<g><path style="opacity:1" fill="#26b7f8" d="M 52.5,99.5 C 54.288,99.2148 55.9547,99.5481 57.5,100.5C 61.1641,105.663 64.1641,111.163 66.5,117C 70.4267,118.212 74.4267,119.212 78.5,120C 79.7158,121.74 81.3825,122.74 83.5,123C 91.1667,123.333 98.8333,123.667 106.5,124C 108.5,124.667 110.5,125.333 112.5,126C 116.574,129.199 116.907,132.366 113.5,135.5C 110.994,136.75 108.327,137.416 105.5,137.5C 112.396,135.114 112.063,134.114 104.5,134.5C 105.568,133.566 106.901,133.232 108.5,133.5C 113.508,132.99 114.508,130.823 111.5,127C 103.18,125.036 94.8471,125.036 86.5,127C 83.7854,127.875 82.4521,129.708 82.5,132.5C 81.5416,132.047 80.7083,131.381 80,130.5C 79.8374,132.387 80.6707,133.887 82.5,135C 88.7813,136.228 95.1146,137.061 101.5,137.5C 99.7354,138.461 97.7354,138.795 95.5,138.5C 91.4908,138.142 87.4908,137.642 83.5,137C 80.9774,135.64 78.9774,133.807 77.5,131.5C 74.9355,130.507 72.2688,128.841 69.5,126.5C 67.2155,127.416 66.0488,126.416 66,123.5C 65.6667,123.833 65.3333,124.167 65,124.5C 64,123.167 63,121.833 62,120.5C 60.4421,114.488 58.1088,108.821 55,103.5C 54.3333,102.167 53.6667,102.167 53,103.5C 52.5172,104.448 52.3505,105.448 52.5,106.5C 52.5,109.5 52.5,112.5 52.5,115.5C 51.5233,112.713 51.19,109.713 51.5,106.5C 51.6741,104.139 52.0074,101.806 52.5,99.5 Z"/></g>
<g><path style="opacity:1" fill="#5c606d" d="M 46.5,109.5 C 40.1965,114.127 33.8631,118.793 27.5,123.5C 31.0788,115.2 37.4121,110.534 46.5,109.5 Z"/></g>
<g><path style="opacity:0.996" fill="#64c3c3" d="M 115.5,109.5 C 117.479,111.168 119.812,111.834 122.5,111.5C 122.134,112.695 121.301,113.361 120,113.5C 117.479,113.178 115.979,111.844 115.5,109.5 Z"/></g>
<g><path style="opacity:1" fill="#756570" d="M 142.5,110.5 C 150.97,110.593 157.303,114.593 161.5,122.5C 155.335,118.25 149.002,114.25 142.5,110.5 Z"/></g>
<g><path style="opacity:1" fill="#38c4fd" d="M 48.5,112.5 C 49.2341,113.708 49.5674,115.041 49.5,116.5C 48.7611,116.369 48.0944,116.536 47.5,117C 45.1179,119.046 43.1179,121.379 41.5,124C 42.2598,125.441 42.9264,126.941 43.5,128.5C 42.9953,129.919 41.9953,130.585 40.5,130.5C 39.8333,130.5 39.1667,130.5 38.5,130.5C 38.1667,129.833 37.8333,129.167 37.5,128.5C 35.2783,127.464 34.1116,125.797 34,123.5C 38.4261,119.233 43.2595,115.567 48.5,112.5 Z"/></g>
<g><path style="opacity:1" fill="#58e9fb" d="M 141.5,114.5 C 141.833,114.5 142.167,114.5 142.5,114.5C 145.015,115.263 147.015,116.763 148.5,119C 147.833,119.333 147.167,119.667 146.5,120C 147.227,121.399 147.727,122.899 148,124.5C 148.654,123.304 149.154,123.304 149.5,124.5C 146.924,125.883 147.258,126.717 150.5,127C 149.833,127.333 149.167,127.667 148.5,128C 150.503,131.55 152.837,134.716 155.5,137.5C 158.076,142.357 161.743,143.357 166.5,140.5C 169.983,141.01 173.316,141.677 176.5,142.5C 174.05,142.298 171.717,142.631 169.5,143.5C 168.833,143.5 168.5,143.833 168.5,144.5C 167.556,147.668 167.556,151.001 168.5,154.5C 165.833,153.167 163.167,153.167 160.5,154.5C 159.047,151.606 158.047,148.606 157.5,145.5C 155.864,142.507 153.531,141.507 150.5,142.5C 149.041,142.433 147.708,142.766 146.5,143.5C 145.25,143.577 144.417,144.244 144,145.5C 142.984,144.366 142.317,144.699 142,146.5C 140.036,146.06 137.87,145.226 135.5,144C 134.809,142.933 134.309,141.766 134,140.5C 133.768,141.737 133.268,142.737 132.5,143.5C 132.873,140.426 133.539,137.426 134.5,134.5C 138.008,128.312 140.342,121.645 141.5,114.5 Z"/></g>
<g><path style="opacity:1" fill="#22a9fd" d="M 77.5,131.5 C 75.3104,132.544 73.1437,132.544 71,131.5C 70.7216,132.416 70.2216,133.082 69.5,133.5C 67.0725,131.508 64.9058,129.175 63,126.5C 60.1667,120.167 57.3333,113.833 54.5,107.5C 54.0431,106.702 53.3764,106.369 52.5,106.5C 52.3505,105.448 52.5172,104.448 53,103.5C 53.6667,102.167 54.3333,102.167 55,103.5C 58.1088,108.821 60.4421,114.488 62,120.5C 63,121.833 64,123.167 65,124.5C 65.3333,124.167 65.6667,123.833 66,123.5C 66.0488,126.416 67.2155,127.416 69.5,126.5C 72.2688,128.841 74.9355,130.507 77.5,131.5 Z"/></g>
<g><path style="opacity:1" fill="#2e2d38" d="M 92.5,116.5 C 96.226,116.177 99.8927,116.511 103.5,117.5C 99.5411,118.66 95.5411,118.827 91.5,118C 92.056,117.617 92.3893,117.117 92.5,116.5 Z"/></g>
<g><path style="opacity:1" fill="#5ef3f9" d="M 142.5,110.5 C 149.002,114.25 155.335,118.25 161.5,122.5C 167.76,128.423 174.094,134.423 180.5,140.5C 180.963,143.351 182.296,144.351 184.5,143.5C 183.416,146.004 182.083,148.337 180.5,150.5C 179.833,150.5 179.5,150.167 179.5,149.5C 179.85,146.547 178.85,144.213 176.5,142.5C 173.316,141.677 169.983,141.01 166.5,140.5C 167.503,133.335 164.503,130.502 157.5,132C 155.845,133.444 155.178,135.278 155.5,137.5C 152.837,134.716 150.503,131.55 148.5,128C 149.167,127.667 149.833,127.333 150.5,127C 147.258,126.717 146.924,125.883 149.5,124.5C 149.154,123.304 148.654,123.304 148,124.5C 147.727,122.899 147.227,121.399 146.5,120C 147.167,119.667 147.833,119.333 148.5,119C 147.015,116.763 145.015,115.263 142.5,114.5C 142.5,113.167 142.5,111.833 142.5,110.5 Z"/></g>
<g><path style="opacity:1" fill="#4bd1f7" d="M 46.5,109.5 C 47.1667,109.5 47.8333,109.5 48.5,109.5C 48.5,110.5 48.5,111.5 48.5,112.5C 43.2595,115.567 38.4261,119.233 34,123.5C 34.1116,125.797 35.2783,127.464 37.5,128.5C 34.4816,128.335 31.4816,128.502 28.5,129C 27.5769,131.041 27.2436,133.208 27.5,135.5C 25.461,136.911 24.461,138.911 24.5,141.5C 22.901,141.232 21.5676,141.566 20.5,142.5C 19.1667,142.5 17.8333,142.5 16.5,142.5C 16.5,143.833 16.5,145.167 16.5,146.5C 15.5489,147.919 15.2155,149.585 15.5,151.5C 13.336,149.178 11.6693,146.511 10.5,143.5C 11.1174,143.611 11.6174,143.944 12,144.5C 14.6667,141.167 17.3333,137.833 20,134.5C 20.3333,135.167 20.6667,135.833 21,136.5C 22.5843,135.139 24.4176,134.472 26.5,134.5C 26.1044,131.518 26.7711,128.851 28.5,126.5C 28.1667,126.167 27.8333,125.833 27.5,125.5C 26.0603,126.952 24.3936,127.952 22.5,128.5C 23.8606,126.473 25.5273,124.806 27.5,123.5C 33.8631,118.793 40.1965,114.127 46.5,109.5 Z"/></g>
<g><path style="opacity:1" fill="#2597f6" d="M 52.5,106.5 C 53.3764,106.369 54.0431,106.702 54.5,107.5C 57.3333,113.833 60.1667,120.167 63,126.5C 64.9058,129.175 67.0725,131.508 69.5,133.5C 69.5,133.833 69.5,134.167 69.5,134.5C 68.8826,134.611 68.3826,134.944 68,135.5C 64.9174,133.562 61.7507,131.896 58.5,130.5C 55.443,125.955 53.443,120.955 52.5,115.5C 52.5,112.5 52.5,109.5 52.5,106.5 Z"/></g>
<g><path style="opacity:1" fill="#eaa24a" d="M 140.5,107.5 C 141.468,109.607 141.802,111.941 141.5,114.5C 140.342,121.645 138.008,128.312 134.5,134.5C 134.591,132.302 133.925,131.969 132.5,133.5C 132.557,132.391 132.89,131.391 133.5,130.5C 138.035,123.558 140.368,115.891 140.5,107.5 Z"/></g>
<g><path style="opacity:1" fill="#1384cb" d="M 108.5,133.5 C 108.953,132.542 109.619,131.708 110.5,131C 106.275,128.277 101.608,127.11 96.5,127.5C 91.6656,126.98 87.3323,128.147 83.5,131C 84.056,131.383 84.3893,131.883 84.5,132.5C 83.8333,132.5 83.1667,132.5 82.5,132.5C 82.4521,129.708 83.7854,127.875 86.5,127C 94.8471,125.036 103.18,125.036 111.5,127C 114.508,130.823 113.508,132.99 108.5,133.5 Z"/></g>
<g><path style="opacity:1" fill="#313647" d="M 37.5,128.5 C 37.8333,129.167 38.1667,129.833 38.5,130.5C 39.5538,135.573 38.0538,139.573 34,142.5C 30.9394,140.941 28.7727,138.608 27.5,135.5C 27.2436,133.208 27.5769,131.041 28.5,129C 31.4816,128.502 34.4816,128.335 37.5,128.5 Z"/></g>
<g><path style="opacity:1" fill="#5be0f8" d="M 10.5,143.5 C 8.99249,141.819 7.99249,139.819 7.5,137.5C 8.7382,138.412 10.0715,138.579 11.5,138C 14.7635,134.227 18.4302,131.06 22.5,128.5C 24.3936,127.952 26.0603,126.952 27.5,125.5C 27.8333,125.833 28.1667,126.167 28.5,126.5C 26.7711,128.851 26.1044,131.518 26.5,134.5C 24.4176,134.472 22.5843,135.139 21,136.5C 20.6667,135.833 20.3333,135.167 20,134.5C 17.3333,137.833 14.6667,141.167 12,144.5C 11.6174,143.944 11.1174,143.611 10.5,143.5 Z"/></g>
<g><path style="opacity:1" fill="#01487b" d="M 108.5,133.5 C 106.901,133.232 105.568,133.566 104.5,134.5C 98.8236,134.666 93.1569,134.499 87.5,134C 86.2625,133.768 85.2625,133.268 84.5,132.5C 84.3893,131.883 84.056,131.383 83.5,131C 87.3323,128.147 91.6656,126.98 96.5,127.5C 101.608,127.11 106.275,128.277 110.5,131C 109.619,131.708 108.953,132.542 108.5,133.5 Z"/></g>
<g><path style="opacity:1" fill="#bd7441" d="M 51.5,106.5 C 51.19,109.713 51.5233,112.713 52.5,115.5C 53.443,120.955 55.443,125.955 58.5,130.5C 59.9751,134.783 61.9751,138.783 64.5,142.5C 65.4408,144.05 66.1075,145.716 66.5,147.5C 64.4214,147.029 62.4214,146.363 60.5,145.5C 57.4022,135.529 53.7355,125.863 49.5,116.5C 49.5674,115.041 49.2341,113.708 48.5,112.5C 48.5,111.5 48.5,110.5 48.5,109.5C 48.8564,107.81 49.8564,106.81 51.5,106.5 Z"/></g>
<g><path style="opacity:1" fill="#b6cb51" d="M 166.5,140.5 C 161.743,143.357 158.076,142.357 155.5,137.5C 155.178,135.278 155.845,133.444 157.5,132C 164.503,130.502 167.503,133.335 166.5,140.5 Z"/></g>
<g><path style="opacity:1" fill="#2accf9" d="M 82.5,132.5 C 83.1667,132.5 83.8333,132.5 84.5,132.5C 85.2625,133.268 86.2625,133.768 87.5,134C 93.1569,134.499 98.8236,134.666 104.5,134.5C 112.063,134.114 112.396,135.114 105.5,137.5C 104.167,137.5 102.833,137.5 101.5,137.5C 95.1146,137.061 88.7813,136.228 82.5,135C 80.6707,133.887 79.8374,132.387 80,130.5C 80.7083,131.381 81.5416,132.047 82.5,132.5 Z"/></g>
<g><path style="opacity:1" fill="#229adf" d="M 77.5,131.5 C 78.9774,133.807 80.9774,135.64 83.5,137C 87.4908,137.642 91.4908,138.142 95.5,138.5C 96.9516,139.302 98.6183,139.802 100.5,140C 99.944,140.383 99.6107,140.883 99.5,141.5C 97.6096,141.297 96.1096,141.963 95,143.5C 93.4039,144.048 92.2373,143.382 91.5,141.5C 86.5734,139.958 81.4067,138.292 76,136.5C 75.6924,137.308 75.1924,137.975 74.5,138.5C 72.8144,137.143 71.1477,135.81 69.5,134.5C 69.5,134.167 69.5,133.833 69.5,133.5C 70.2216,133.082 70.7216,132.416 71,131.5C 73.1437,132.544 75.3104,132.544 77.5,131.5 Z"/></g>
<g><path style="opacity:1" fill="#2b96c8" d="M 38.5,130.5 C 39.1667,130.5 39.8333,130.5 40.5,130.5C 42.6061,132.719 43.6061,135.385 43.5,138.5C 40.0585,139.77 37.8919,142.104 37,145.5C 40.7709,149.547 45.2709,150.547 50.5,148.5C 50.5,145.5 50.5,142.5 50.5,139.5C 51.4959,139.414 52.3292,139.748 53,140.5C 55.3165,144.704 54.4831,148.038 50.5,150.5C 46.8183,150.335 43.1516,150.501 39.5,151C 40.7201,152.525 41.3868,154.359 41.5,156.5C 41.4932,158.369 41.1599,160.036 40.5,161.5C 40.6641,158.813 40.4974,156.146 40,153.5C 37.8153,152.072 35.8153,150.405 34,148.5C 32.264,150.063 30.764,151.73 29.5,153.5C 25.917,152.582 22.2504,152.916 18.5,154.5C 19.1272,155.417 19.4606,156.417 19.5,157.5C 17.6736,155.853 16.3403,153.853 15.5,151.5C 15.2155,149.585 15.5489,147.919 16.5,146.5C 17.1495,148.435 17.4828,150.435 17.5,152.5C 22.9706,153.06 27.3039,151.227 30.5,147C 28.3552,143.12 25.0218,141.62 20.5,142.5C 21.5676,141.566 22.901,141.232 24.5,141.5C 24.461,138.911 25.461,136.911 27.5,135.5C 28.7727,138.608 30.9394,140.941 34,142.5C 38.0538,139.573 39.5538,135.573 38.5,130.5 Z"/></g>
<g><path style="opacity:1" fill="#313646" d="M 43.5,138.5 C 46.0593,138.198 48.3926,138.532 50.5,139.5C 50.5,142.5 50.5,145.5 50.5,148.5C 45.2709,150.547 40.7709,149.547 37,145.5C 37.8919,142.104 40.0585,139.77 43.5,138.5 Z"/></g>
<g><path style="opacity:1" fill="#38a5eb" d="M 49.5,116.5 C 53.7355,125.863 57.4022,135.529 60.5,145.5C 60.7359,148.609 60.4025,151.609 59.5,154.5C 56.0884,153.925 53.0884,152.592 50.5,150.5C 54.4831,148.038 55.3165,144.704 53,140.5C 52.3292,139.748 51.4959,139.414 50.5,139.5C 48.3926,138.532 46.0593,138.198 43.5,138.5C 43.6061,135.385 42.6061,132.719 40.5,130.5C 41.9953,130.585 42.9953,129.919 43.5,128.5C 42.9264,126.941 42.2598,125.441 41.5,124C 43.1179,121.379 45.1179,119.046 47.5,117C 48.0944,116.536 48.7611,116.369 49.5,116.5 Z"/></g>
<g><path style="opacity:1" fill="#2588d4" d="M 58.5,130.5 C 61.7507,131.896 64.9174,133.562 68,135.5C 68.3826,134.944 68.8826,134.611 69.5,134.5C 71.1477,135.81 72.8144,137.143 74.5,138.5C 75.1924,137.975 75.6924,137.308 76,136.5C 81.4067,138.292 86.5734,139.958 91.5,141.5C 91.631,142.239 91.4643,142.906 91,143.5C 85.4307,143.468 79.9307,143.468 74.5,143.5C 76.5543,145.194 78.8877,146.361 81.5,147C 80.6721,147.915 79.6721,148.581 78.5,149C 81.6277,149.875 84.6277,151.042 87.5,152.5C 83.4375,153.112 79.6042,152.112 76,149.5C 75.6667,149.833 75.3333,150.167 75,150.5C 71.012,148.329 67.512,145.662 64.5,142.5C 61.9751,138.783 59.9751,134.783 58.5,130.5 Z"/></g>
<g><path style="opacity:1" fill="#32a4cf" d="M 133.5,130.5 C 132.89,131.391 132.557,132.391 132.5,133.5C 129.519,140.797 125.519,147.464 120.5,153.5C 116.584,154.812 112.584,155.812 108.5,156.5C 103.833,156.5 99.1667,156.5 94.5,156.5C 100.954,154.511 107.288,152.011 113.5,149C 111.5,149 109.5,149 107.5,149C 110.131,147.673 112.798,146.34 115.5,145C 114.833,144.667 114.167,144.333 113.5,144C 114.833,143.333 114.833,142.667 113.5,142C 112.234,141.691 111.067,141.191 110,140.5C 106.432,141.076 102.932,141.41 99.5,141.5C 99.6107,140.883 99.944,140.383 100.5,140C 98.6183,139.802 96.9516,139.302 95.5,138.5C 97.7354,138.795 99.7354,138.461 101.5,137.5C 102.833,137.5 104.167,137.5 105.5,137.5C 108.327,137.416 110.994,136.75 113.5,135.5C 115.878,136.784 118.044,137.784 120,138.5C 121.945,136.819 123.945,136.152 126,136.5C 126.317,134.699 126.984,134.366 128,135.5C 129.724,133.604 131.557,131.938 133.5,130.5 Z"/></g>
<g><path style="opacity:1" fill="#313647" d="M 20.5,142.5 C 25.0218,141.62 28.3552,143.12 30.5,147C 27.3039,151.227 22.9706,153.06 17.5,152.5C 17.4828,150.435 17.1495,148.435 16.5,146.5C 16.5,145.167 16.5,143.833 16.5,142.5C 17.8333,142.5 19.1667,142.5 20.5,142.5 Z"/></g>
<g><path style="opacity:1" fill="#318dc4" d="M 94.5,156.5 C 89.0718,155.892 83.4051,155.559 77.5,155.5C 75.4068,154.955 73.4068,154.122 71.5,153C 70.1666,150.809 68.5,148.976 66.5,147.5C 66.1075,145.716 65.4408,144.05 64.5,142.5C 67.512,145.662 71.012,148.329 75,150.5C 75.3333,150.167 75.6667,149.833 76,149.5C 79.6042,152.112 83.4375,153.112 87.5,152.5C 84.6277,151.042 81.6277,149.875 78.5,149C 79.6721,148.581 80.6721,147.915 81.5,147C 78.8877,146.361 76.5543,145.194 74.5,143.5C 79.9307,143.468 85.4307,143.468 91,143.5C 91.4643,142.906 91.631,142.239 91.5,141.5C 92.2373,143.382 93.4039,144.048 95,143.5C 96.1096,141.963 97.6096,141.297 99.5,141.5C 102.932,141.41 106.432,141.076 110,140.5C 111.067,141.191 112.234,141.691 113.5,142C 114.833,142.667 114.833,143.333 113.5,144C 114.167,144.333 114.833,144.667 115.5,145C 112.798,146.34 110.131,147.673 107.5,149C 109.5,149 111.5,149 113.5,149C 107.288,152.011 100.954,154.511 94.5,156.5 Z"/></g>
<g><path style="opacity:1" fill="#2d36e2" d="M 150.5,142.5 C 152.931,144.068 152.931,145.568 150.5,147C 152.211,148.776 154.211,149.942 156.5,150.5C 155.833,151.5 155.167,152.5 154.5,153.5C 148.856,154.519 145.856,152.186 145.5,146.5C 146.404,145.791 146.737,144.791 146.5,143.5C 147.708,142.766 149.041,142.433 150.5,142.5 Z"/></g>
<g><path style="opacity:1" fill="#5959ee" d="M 157.5,145.5 C 157.784,147.415 157.451,149.081 156.5,150.5C 154.211,149.942 152.211,148.776 150.5,147C 152.931,145.568 152.931,144.068 150.5,142.5C 153.531,141.507 155.864,142.507 157.5,145.5 Z"/></g>
<g><path style="opacity:1" fill="#ab4746" d="M 176.5,142.5 C 178.85,144.213 179.85,146.547 179.5,149.5C 175.999,153.707 172.832,153.374 170,148.5C 169.506,146.866 169.34,145.199 169.5,143.5C 171.717,142.631 174.05,142.298 176.5,142.5 Z"/></g>
<g><path style="opacity:1" fill="#d47633" d="M 60.5,145.5 C 62.4214,146.363 64.4214,147.029 66.5,147.5C 68.5,148.976 70.1666,150.809 71.5,153C 73.4068,154.122 75.4068,154.955 77.5,155.5C 77.5,155.833 77.5,156.167 77.5,156.5C 76.5041,156.414 75.6708,156.748 75,157.5C 70.6378,156.525 66.4712,155.859 62.5,155.5C 61.2613,155.942 60.2613,156.609 59.5,157.5C 59.5,156.5 59.5,155.5 59.5,154.5C 60.4025,151.609 60.7359,148.609 60.5,145.5 Z"/></g>
<g><path style="opacity:1" fill="#666875" d="M 169.5,143.5 C 169.34,145.199 169.506,146.866 170,148.5C 172.832,153.374 175.999,153.707 179.5,149.5C 179.5,150.167 179.833,150.5 180.5,150.5C 179.974,152.23 178.974,153.564 177.5,154.5C 171.103,154.429 168.103,151.096 168.5,144.5C 168.5,143.833 168.833,143.5 169.5,143.5 Z"/></g>
<g><path style="opacity:1" fill="#313646" d="M 40.5,161.5 C 37.2356,162.324 33.9023,162.658 30.5,162.5C 30.2962,159.482 29.9629,156.482 29.5,153.5C 30.764,151.73 32.264,150.063 34,148.5C 35.8153,150.405 37.8153,152.072 40,153.5C 40.4974,156.146 40.6641,158.813 40.5,161.5 Z"/></g>
<g><path style="opacity:1" fill="#fb912d" d="M 134.5,134.5 C 133.539,137.426 132.873,140.426 132.5,143.5C 131.226,148.806 131.559,154.14 133.5,159.5C 133.959,162.877 134.626,166.211 135.5,169.5C 135.557,170.609 135.89,171.609 136.5,172.5C 136.23,176.85 136.897,181.017 138.5,185C 137.29,186.039 136.29,187.206 135.5,188.5C 135.167,188.5 134.833,188.5 134.5,188.5C 132.447,188.402 130.78,189.069 129.5,190.5C 128.791,191.404 127.791,191.737 126.5,191.5C 123.918,191.025 121.918,191.692 120.5,193.5C 120.167,193.5 119.833,193.5 119.5,193.5C 116.123,193.068 113.123,193.735 110.5,195.5C 100.5,195.5 90.5,195.5 80.5,195.5C 80.5,195.167 80.5,194.833 80.5,194.5C 75.8858,192.17 70.8858,190.836 65.5,190.5C 65.2671,188.938 64.6005,187.605 63.5,186.5C 68.5329,187.091 73.1996,186.091 77.5,183.5C 79.2092,186.688 81.8759,188.355 85.5,188.5C 89.4501,187.775 92.9501,186.108 96,183.5C 98.0246,188.145 101.525,189.645 106.5,188C 109.239,186.974 111.572,185.474 113.5,183.5C 113.833,183.5 114.167,183.5 114.5,183.5C 114.97,184.693 115.97,185.36 117.5,185.5C 119.03,185.36 120.03,184.693 120.5,183.5C 120.343,182.127 120.51,180.793 121,179.5C 121.671,180.252 122.504,180.586 123.5,180.5C 124.183,182.176 125.517,182.843 127.5,182.5C 127.5,182.833 127.5,183.167 127.5,183.5C 125.712,183.215 124.045,183.548 122.5,184.5C 123.5,184.833 124.5,185.167 125.5,185.5C 127.03,185.36 128.03,184.693 128.5,183.5C 129.485,179.366 129.818,175.032 129.5,170.5C 127.735,169.539 125.735,169.205 123.5,169.5C 123.767,172.775 122.767,173.608 120.5,172C 118.5,171.333 116.5,171.333 114.5,172C 115.406,173.699 115.739,175.533 115.5,177.5C 113.833,175.833 112.167,174.167 110.5,172.5C 108.886,171.729 107.386,170.729 106,169.5C 104.862,169.989 103.695,170.322 102.5,170.5C 99.5468,171.787 97.2135,173.787 95.5,176.5C 95.2624,174.596 94.2624,173.262 92.5,172.5C 91.7142,170.265 90.0476,169.265 87.5,169.5C 85.3199,170.273 83.3199,171.273 81.5,172.5C 80.1851,173.476 78.8518,174.476 77.5,175.5C 76.6376,174.234 75.9709,172.901 75.5,171.5C 78.8632,170.291 82.1966,168.957 85.5,167.5C 87.0983,168.485 88.765,168.651 90.5,168C 90.1667,167.667 89.8333,167.333 89.5,167C 92.5,166.667 95.5,166.333 98.5,166C 99.2529,164.513 100.086,164.346 101,165.5C 102.224,161.221 104.891,159.888 109,161.5C 113.128,159.192 116.961,156.525 120.5,153.5C 125.519,147.464 129.519,140.797 132.5,133.5C 133.925,131.969 134.591,132.302 134.5,134.5 Z"/></g>
<g><path style="opacity:1" fill="#54c6dc" d="M 168.5,144.5 C 168.103,151.096 171.103,154.429 177.5,154.5C 175.291,159.381 171.957,163.381 167.5,166.5C 165.5,165.833 163.5,165.167 161.5,164.5C 169.33,164.819 171.663,161.485 168.5,154.5C 167.556,151.001 167.556,147.668 168.5,144.5 Z"/></g>
<g><path style="opacity:1" fill="#36c9fa" d="M 146.5,143.5 C 146.737,144.791 146.404,145.791 145.5,146.5C 144.29,149.347 144.623,152.181 146.5,155C 149.538,155.885 152.205,155.385 154.5,153.5C 155.167,152.5 155.833,151.5 156.5,150.5C 157.451,149.081 157.784,147.415 157.5,145.5C 158.047,148.606 159.047,151.606 160.5,154.5C 159.833,155.5 159.167,156.5 158.5,157.5C 157.73,159.299 156.397,160.632 154.5,161.5C 148.381,158.421 141.881,158.088 135,160.5C 134.617,159.944 134.117,159.611 133.5,159.5C 131.559,154.14 131.226,148.806 132.5,143.5C 133.268,142.737 133.768,141.737 134,140.5C 134.309,141.766 134.809,142.933 135.5,144C 137.87,145.226 140.036,146.06 142,146.5C 142.317,144.699 142.984,144.366 144,145.5C 144.417,144.244 145.25,143.577 146.5,143.5 Z"/></g>
<g><path style="opacity:1" fill="#42bc4c" d="M 168.5,154.5 C 171.663,161.485 169.33,164.819 161.5,164.5C 159.166,162.824 158.166,160.491 158.5,157.5C 159.167,156.5 159.833,155.5 160.5,154.5C 163.167,153.167 165.833,153.167 168.5,154.5 Z"/></g>
<g><path style="opacity:1" fill="#23a6f6" d="M 145.5,146.5 C 145.856,152.186 148.856,154.519 154.5,153.5C 152.205,155.385 149.538,155.885 146.5,155C 144.623,152.181 144.29,149.347 145.5,146.5 Z"/></g>
<g><path style="opacity:1" fill="#f5882f" d="M 120.5,153.5 C 116.961,156.525 113.128,159.192 109,161.5C 104.891,159.888 102.224,161.221 101,165.5C 100.086,164.346 99.2529,164.513 98.5,166C 95.5,166.333 92.5,166.667 89.5,167C 89.8333,167.333 90.1667,167.667 90.5,168C 88.765,168.651 87.0983,168.485 85.5,167.5C 82.1966,168.957 78.8632,170.291 75.5,171.5C 71.363,168.05 67.0297,167.716 62.5,170.5C 60.8052,168.103 59.4718,165.437 58.5,162.5C 58.366,160.708 58.6993,159.042 59.5,157.5C 60.2613,156.609 61.2613,155.942 62.5,155.5C 66.4712,155.859 70.6378,156.525 75,157.5C 75.6708,156.748 76.5041,156.414 77.5,156.5C 87.9882,157.686 98.3215,157.686 108.5,156.5C 112.584,155.812 116.584,154.812 120.5,153.5 Z"/></g>
<g><path style="opacity:1" fill="#679ab1" d="M 77.5,156.5 C 77.5,156.167 77.5,155.833 77.5,155.5C 83.4051,155.559 89.0718,155.892 94.5,156.5C 99.1667,156.5 103.833,156.5 108.5,156.5C 98.3215,157.686 87.9882,157.686 77.5,156.5 Z"/></g>
<g><path style="opacity:1" fill="#2bade3" d="M 50.5,150.5 C 53.0884,152.592 56.0884,153.925 59.5,154.5C 59.5,155.5 59.5,156.5 59.5,157.5C 58.6993,159.042 58.366,160.708 58.5,162.5C 57.6618,162.842 57.3284,163.508 57.5,164.5C 56.8826,164.389 56.3826,164.056 56,163.5C 54.2118,164.358 52.3785,165.358 50.5,166.5C 49.914,166.291 49.414,165.957 49,165.5C 46.8179,166.93 44.6512,168.43 42.5,170C 43.0442,170.717 43.7109,171.217 44.5,171.5C 44.0455,176.203 41.7121,177.536 37.5,175.5C 30.5,170.5 24.5,164.5 19.5,157.5C 19.4606,156.417 19.1272,155.417 18.5,154.5C 22.2504,152.916 25.917,152.582 29.5,153.5C 29.9629,156.482 30.2962,159.482 30.5,162.5C 33.9023,162.658 37.2356,162.324 40.5,161.5C 41.1599,160.036 41.4932,158.369 41.5,156.5C 41.3868,154.359 40.7201,152.525 39.5,151C 43.1516,150.501 46.8183,150.335 50.5,150.5 Z"/></g>
<g><path style="opacity:1" fill="#2bb0e9" d="M 158.5,157.5 C 158.166,160.491 159.166,162.824 161.5,164.5C 163.5,165.167 165.5,165.833 167.5,166.5C 165.5,169.167 163.167,171.5 160.5,173.5C 159.792,171.622 158.626,169.955 157,168.5C 156.667,168.833 156.333,169.167 156,169.5C 153.438,167.087 150.438,165.42 147,164.5C 146.676,166.569 145.842,166.902 144.5,165.5C 141.574,166.265 139.574,167.932 138.5,170.5C 137.391,170.443 136.391,170.11 135.5,169.5C 134.626,166.211 133.959,162.877 133.5,159.5C 134.117,159.611 134.617,159.944 135,160.5C 141.881,158.088 148.381,158.421 154.5,161.5C 156.397,160.632 157.73,159.299 158.5,157.5 Z"/></g>
<g><path style="opacity:1" fill="#2f94d1" d="M 57.5,164.5 C 57.3713,166.216 57.038,167.883 56.5,169.5C 55.5987,170.29 54.9321,171.29 54.5,172.5C 52.4456,171.391 50.2789,170.391 48,169.5C 46.5405,169.808 45.3739,170.475 44.5,171.5C 43.7109,171.217 43.0442,170.717 42.5,170C 44.6512,168.43 46.8179,166.93 49,165.5C 49.414,165.957 49.914,166.291 50.5,166.5C 52.3785,165.358 54.2118,164.358 56,163.5C 56.3826,164.056 56.8826,164.389 57.5,164.5 Z"/></g>
<g><path style="opacity:1" fill="#2e90ce" d="M 160.5,173.5 C 158.469,175.522 156.135,177.189 153.5,178.5C 152.325,178.719 151.325,178.386 150.5,177.5C 148.323,171.596 144.323,169.262 138.5,170.5C 139.574,167.932 141.574,166.265 144.5,165.5C 145.842,166.902 146.676,166.569 147,164.5C 150.438,165.42 153.438,167.087 156,169.5C 156.333,169.167 156.667,168.833 157,168.5C 158.626,169.955 159.792,171.622 160.5,173.5 Z"/></g>
<g><path style="opacity:1" fill="#b9713b" d="M 56.5,169.5 C 57.0507,172.267 58.3841,174.6 60.5,176.5C 59.5672,180.429 59.2338,184.429 59.5,188.5C 55.8487,187.341 52.5154,185.674 49.5,183.5C 50.4972,183.53 51.1639,183.03 51.5,182C 52.3223,179.566 52.6556,177.066 52.5,174.5C 53.5,174.167 54.1667,173.5 54.5,172.5C 54.9321,171.29 55.5987,170.29 56.5,169.5 Z"/></g>
<g><path style="opacity:0.996" fill="#d97f3d" d="M 58.5,162.5 C 59.4718,165.437 60.8052,168.103 62.5,170.5C 64.0538,174.567 64.7204,178.9 64.5,183.5C 66.8333,183.5 69.1667,183.5 71.5,183.5C 68.5234,183.902 65.8567,184.902 63.5,186.5C 64.6005,187.605 65.2671,188.938 65.5,190.5C 63.2972,190.396 61.2972,189.73 59.5,188.5C 59.2338,184.429 59.5672,180.429 60.5,176.5C 58.3841,174.6 57.0507,172.267 56.5,169.5C 57.038,167.883 57.3713,166.216 57.5,164.5C 57.3284,163.508 57.6618,162.842 58.5,162.5 Z"/></g>
<g><path style="opacity:1" fill="#407fa2" d="M 135.5,169.5 C 136.391,170.11 137.391,170.443 138.5,170.5C 144.323,169.262 148.323,171.596 150.5,177.5C 151.325,178.386 152.325,178.719 153.5,178.5C 151.178,180.664 148.511,182.331 145.5,183.5C 145.953,182.542 146.619,181.708 147.5,181C 144.286,178.239 140.953,175.739 137.5,173.5C 137.5,172.833 137.167,172.5 136.5,172.5C 135.89,171.609 135.557,170.609 135.5,169.5 Z"/></g>
<g><path style="opacity:1" fill="#427b97" d="M 54.5,172.5 C 54.1667,173.5 53.5,174.167 52.5,174.5C 52.1034,173.475 51.4368,173.308 50.5,174C 47.7063,175.535 45.7063,177.702 44.5,180.5C 41.8646,179.189 39.5313,177.522 37.5,175.5C 41.7121,177.536 44.0455,176.203 44.5,171.5C 45.3739,170.475 46.5405,169.808 48,169.5C 50.2789,170.391 52.4456,171.391 54.5,172.5 Z"/></g>
<g><path style="opacity:1" fill="#f5c47b" d="M 129.5,170.5 C 129.818,175.032 129.485,179.366 128.5,183.5C 128.167,183.5 127.833,183.5 127.5,183.5C 127.5,183.167 127.5,182.833 127.5,182.5C 127.539,178.267 128.205,174.267 129.5,170.5 Z"/></g>
<g><path style="opacity:1" fill="#deddde" d="M 52.5,174.5 C 52.6556,177.066 52.3223,179.566 51.5,182C 51.1639,183.03 50.4972,183.53 49.5,183.5C 47.5659,182.89 45.8993,181.89 44.5,180.5C 45.7063,177.702 47.7063,175.535 50.5,174C 51.4368,173.308 52.1034,173.475 52.5,174.5 Z"/></g>
<g><path style="opacity:1" fill="#fbca2e" d="M 110.5,172.5 C 111.929,175.308 112.595,178.308 112.5,181.5C 112.5,182.167 112.167,182.5 111.5,182.5C 106.93,181.559 102.263,181.226 97.5,181.5C 97.3379,179.473 97.5045,177.473 98,175.5C 99.7073,173.963 101.207,172.296 102.5,170.5C 103.695,170.322 104.862,169.989 106,169.5C 107.386,170.729 108.886,171.729 110.5,172.5 Z"/></g>
<g><path style="opacity:1" fill="#e19e7b" d="M 104.5,174.5 C 103.167,174.5 102.5,175.167 102.5,176.5C 101.596,175.791 101.263,174.791 101.5,173.5C 102.791,173.263 103.791,173.596 104.5,174.5 Z"/></g>
<g><path style="opacity:1" fill="#fdcc2b" d="M 129.5,170.5 C 128.205,174.267 127.539,178.267 127.5,182.5C 125.517,182.843 124.183,182.176 123.5,180.5C 123.5,179.5 123.5,178.5 123.5,177.5C 122.167,177.5 120.833,177.5 119.5,177.5C 119.5,179.167 119.5,180.833 119.5,182.5C 118.167,182.5 116.833,182.5 115.5,182.5C 115.5,180.833 115.5,179.167 115.5,177.5C 115.739,175.533 115.406,173.699 114.5,172C 116.5,171.333 118.5,171.333 120.5,172C 122.767,173.608 123.767,172.775 123.5,169.5C 125.735,169.205 127.735,169.539 129.5,170.5 Z"/></g>
<g><path style="opacity:1" fill="#f83923" d="M 104.5,174.5 C 104.5,175.833 103.833,176.5 102.5,176.5C 102.5,175.167 103.167,174.5 104.5,174.5 Z"/></g>
<g><path style="opacity:1" fill="#e7e5e7" d="M 137.5,173.5 C 140.953,175.739 144.286,178.239 147.5,181C 146.619,181.708 145.953,182.542 145.5,183.5C 143.819,185.008 141.819,186.008 139.5,186.5C 139.369,182.048 138.702,177.714 137.5,173.5 Z"/></g>
<g><path style="opacity:1" fill="#fbc031" d="M 92.5,172.5 C 94.0233,175.635 94.69,178.968 94.5,182.5C 92.4924,184.927 89.8257,185.927 86.5,185.5C 82.7819,186.274 80.4486,184.94 79.5,181.5C 79.2104,178.215 79.877,175.215 81.5,172.5C 83.3199,171.273 85.3199,170.273 87.5,169.5C 90.0476,169.265 91.7142,170.265 92.5,172.5 Z"/></g>
<g><path style="opacity:1" fill="#e74028" d="M 84.5,174.5 C 85.675,174.281 86.675,174.614 87.5,175.5C 85.9483,176.798 84.9483,176.465 84.5,174.5 Z"/></g>
<g><path style="opacity:1" fill="#e8b78b" d="M 92.5,172.5 C 94.2624,173.262 95.2624,174.596 95.5,176.5C 96.2341,177.708 96.5674,179.041 96.5,180.5C 95.8333,181.167 95.1667,181.833 94.5,182.5C 94.69,178.968 94.0233,175.635 92.5,172.5 Z"/></g>
<g><path style="opacity:1" fill="#eaab3f" d="M 75.5,171.5 C 75.9709,172.901 76.6376,174.234 77.5,175.5C 78.8518,174.476 80.1851,173.476 81.5,172.5C 79.877,175.215 79.2104,178.215 79.5,181.5C 78.7784,181.082 78.2784,180.416 78,179.5C 76.5747,181.916 74.408,183.249 71.5,183.5C 69.1667,183.5 66.8333,183.5 64.5,183.5C 64.7204,178.9 64.0538,174.567 62.5,170.5C 67.0297,167.716 71.363,168.05 75.5,171.5 Z"/></g>
<g><path style="opacity:1" fill="#fac22c" d="M 67.5,170.5 C 70.0444,170.104 72.2111,170.771 74,172.5C 74.6353,174.618 75.4686,176.618 76.5,178.5C 76.2534,181.082 74.92,181.915 72.5,181C 71.5,178.667 69.8333,177 67.5,176C 71.6142,173.852 71.2809,172.518 66.5,172C 67.056,171.617 67.3893,171.117 67.5,170.5 Z"/></g>
<g><path style="opacity:1" fill="#de8945" d="M 136.5,172.5 C 137.167,172.5 137.5,172.833 137.5,173.5C 138.702,177.714 139.369,182.048 139.5,186.5C 138.486,187.674 137.153,188.34 135.5,188.5C 136.29,187.206 137.29,186.039 138.5,185C 136.897,181.017 136.23,176.85 136.5,172.5 Z"/></g>
<g><path style="opacity:1" fill="#f3af32" d="M 102.5,170.5 C 101.207,172.296 99.7073,173.963 98,175.5C 97.5045,177.473 97.3379,179.473 97.5,181.5C 102.263,181.226 106.93,181.559 111.5,182.5C 108.103,185.392 104.103,186.226 99.5,185C 97.8588,183.871 96.8588,182.371 96.5,180.5C 96.5674,179.041 96.2341,177.708 95.5,176.5C 97.2135,173.787 99.5468,171.787 102.5,170.5 Z"/></g>
<g><path style="opacity:1" fill="#e59d56" d="M 110.5,172.5 C 112.167,174.167 113.833,175.833 115.5,177.5C 115.5,179.167 115.5,180.833 115.5,182.5C 116.833,182.5 118.167,182.5 119.5,182.5C 119.5,180.833 119.5,179.167 119.5,177.5C 120.833,177.5 122.167,177.5 123.5,177.5C 123.5,178.5 123.5,179.5 123.5,180.5C 122.504,180.586 121.671,180.252 121,179.5C 120.51,180.793 120.343,182.127 120.5,183.5C 118.5,183.5 116.5,183.5 114.5,183.5C 114.167,183.5 113.833,183.5 113.5,183.5C 113.672,182.508 113.338,181.842 112.5,181.5C 112.595,178.308 111.929,175.308 110.5,172.5 Z"/></g>
<g><path style="opacity:1" fill="#f62220" d="M 114.5,183.5 C 116.5,183.5 118.5,183.5 120.5,183.5C 120.03,184.693 119.03,185.36 117.5,185.5C 115.97,185.36 114.97,184.693 114.5,183.5 Z"/></g>
<g><path style="opacity:1" fill="#ec2e21" d="M 127.5,183.5 C 127.833,183.5 128.167,183.5 128.5,183.5C 128.03,184.693 127.03,185.36 125.5,185.5C 124.5,185.167 123.5,184.833 122.5,184.5C 124.045,183.548 125.712,183.215 127.5,183.5 Z"/></g>
<g><path style="opacity:1" fill="#ee3e27" d="M 79.5,181.5 C 80.4486,184.94 82.7819,186.274 86.5,185.5C 89.8257,185.927 92.4924,184.927 94.5,182.5C 95.1667,181.833 95.8333,181.167 96.5,180.5C 96.8588,182.371 97.8588,183.871 99.5,185C 104.103,186.226 108.103,185.392 111.5,182.5C 112.167,182.5 112.5,182.167 112.5,181.5C 113.338,181.842 113.672,182.508 113.5,183.5C 111.572,185.474 109.239,186.974 106.5,188C 101.525,189.645 98.0246,188.145 96,183.5C 92.9501,186.108 89.4501,187.775 85.5,188.5C 81.8759,188.355 79.2092,186.688 77.5,183.5C 73.1996,186.091 68.5329,187.091 63.5,186.5C 65.8567,184.902 68.5234,183.902 71.5,183.5C 74.408,183.249 76.5747,181.916 78,179.5C 78.2784,180.416 78.7784,181.082 79.5,181.5 Z"/></g>
<g><path style="opacity:0.349" fill="#8b6f57" d="M 134.5,188.5 C 133.22,189.931 131.553,190.598 129.5,190.5C 130.78,189.069 132.447,188.402 134.5,188.5 Z"/></g>
<g><path style="opacity:0.843" fill="#a87950" d="M 126.5,191.5 C 124.786,192.738 122.786,193.405 120.5,193.5C 121.918,191.692 123.918,191.025 126.5,191.5 Z"/></g>
<g><path style="opacity:0.694" fill="#a0724a" d="M 65.5,190.5 C 70.8858,190.836 75.8858,192.17 80.5,194.5C 75.1119,194.238 70.1119,192.905 65.5,190.5 Z"/></g>
<g><path style="opacity:0.094" fill="#766656" d="M 119.5,193.5 C 117.833,194.167 116.167,194.833 114.5,195.5C 113.167,195.5 111.833,195.5 110.5,195.5C 113.123,193.735 116.123,193.068 119.5,193.5 Z"/></g>
</svg>
