<svg width="128" height="128" viewBox="0 0 128 128" fill="none" xmlns="http://www.w3.org/2000/svg">
<path d="M7.4504 123.27C9.7204 125.73 19.0704 121.44 26.4504 118C31.9804 115.43 54.1104 106.35 65.1104 101.64C68.0804 100.37 72.4004 98.71 75.5104 94.62C78.2704 90.98 85.5904 75.52 70.8504 59.86C55.8904 43.96 40.4804 48.35 34.7204 52.43C31.3304 54.83 28.5704 60.24 27.3304 62.99C22.0904 74.61 14.6204 95.9 11.5804 104.27C9.3504 110.44 5.2004 120.83 7.4504 123.27Z" fill="#FFC107"/>
<path d="M25.8495 66.4902C25.9895 68.2302 26.3395 71.0602 27.5395 76.5102C28.3595 80.2502 29.6995 84.1702 30.7895 86.7602C34.0595 94.5502 38.6495 97.6902 43.2995 100.21C51.1995 104.49 56.5695 105.29 56.5695 105.29L50.1295 107.92C50.1295 107.92 46.2295 107.11 40.9095 104.49C35.8395 101.99 30.5595 97.7602 26.6995 89.4802C25.0295 85.8902 24.0595 82.4102 23.4995 79.6502C22.8095 76.2302 22.6995 74.2902 22.6995 74.2902L25.8495 66.4902ZM17.9395 86.7702C17.9395 86.7702 18.7395 93.2602 24.0995 101.45C30.3795 111.03 39.1495 112.6 39.1495 112.6L33.3195 115C33.3195 115 26.8095 113.01 20.6195 104.56C16.7595 99.2902 15.6795 92.9902 15.6795 92.9902L17.9395 86.7702ZM12.3895 102.15C12.3895 102.15 13.8495 107.75 17.0495 111.93C20.8595 116.92 25.7095 118.37 25.7095 118.37L21.2395 120.35C21.2395 120.35 17.8495 119.64 14.1395 114.94C11.3195 111.37 10.5195 107.27 10.5195 107.27L12.3895 102.15Z" fill="#FF8F00"/>
<path opacity="0.44" d="M9.9603 116.37C9.7603 115.92 9.7603 115.41 9.9703 114.97L35.4403 62.1499L39.6303 77.8999L12.8303 116.61C12.1103 117.69 10.4903 117.55 9.9603 116.37Z" fill="#FFFDE7"/>
<path d="M41.6496 83.1901C53.5496 97.1101 67.0996 95.3701 71.6096 91.8501C76.1296 88.3201 79.6995 76.1901 67.8495 62.5001C55.4295 48.1601 41.3696 52.2501 38.1196 55.3501C34.8696 58.4501 30.7296 70.4201 41.6496 83.1901Z" fill="url(#paint0_linear_1486_2)"/>
<path d="M82.5204 88.9198C78.1804 85.2798 75.8704 85.9298 72.7704 87.2198C68.7704 88.8798 62.4804 90.1098 53.9404 87.2198L56.5104 81.0298C61.5804 82.7398 65.2504 81.9098 68.4204 80.0398C72.5004 77.6398 78.0804 74.3498 86.7604 81.6398C90.3804 84.6798 94.0904 86.6998 96.8104 85.7798C98.7904 85.1198 99.8404 82.1698 100.37 79.8198C100.42 79.6098 100.5 79.0098 100.56 78.4798C101.04 74.8098 101.84 66.8898 107.74 62.8398C114.05 58.5098 120.68 58.5098 120.68 58.5098L121.88 70.4298C118.83 69.9798 116.71 70.5998 114.92 71.5898C108.18 75.3398 114.05 89.7398 103.56 94.5798C93.4704 99.2698 85.2204 91.1798 82.5204 88.9198Z" fill="#03A9F4"/>
<path d="M45.4003 73.72L41.0603 69.83C49.0303 60.93 46.9303 54.39 45.4003 49.63C45.0903 48.67 44.8003 47.76 44.6103 46.89C43.9303 43.81 43.7903 41.13 44.0003 38.79C40.9403 34.98 39.5903 30.99 39.5003 30.72C37.6403 25.09 39.0403 19.6 42.2503 14.45C48.7403 4 60.4903 4 60.4903 4L64.4103 14.49C61.4303 14.37 51.6603 14.52 48.6603 19.25C44.8703 25.21 47.3603 28.89 47.5403 29.31C48.2703 28.36 49.0103 27.6 49.6703 27.01C54.4603 22.76 58.6203 22.15 61.2703 22.39C64.2503 22.66 66.9503 24.16 68.8803 26.62C70.9903 29.32 71.8603 32.83 71.1903 36.02C70.5403 39.13 68.4703 41.76 65.3603 43.43C59.9303 46.35 55.4103 45.95 52.3803 44.94C52.4003 45.01 52.4103 45.09 52.4303 45.16C52.5403 45.66 52.7603 46.36 53.0203 47.17C54.7903 52.65 58.0803 61.35 45.4003 73.72ZM52.7503 36.19C53.3303 36.61 53.9403 36.96 54.5703 37.21C56.6703 38.05 58.9603 37.77 61.5603 36.37C63.0903 35.55 63.2703 34.67 63.3303 34.38C63.5103 33.51 63.2103 32.4 62.5603 31.57C61.9903 30.84 61.3303 30.46 60.5403 30.38C59.0403 30.25 57.0103 31.2 54.9803 33.01C54.0103 33.88 53.2703 34.95 52.7503 36.19Z" fill="#F44336"/>
<path d="M62.7696 75.3499L56.5596 75.1799C56.5596 75.1799 59.5096 58.5199 69.0596 55.7199C70.8496 55.1999 72.8096 54.6699 74.7796 54.3799C75.9496 54.1999 77.7996 53.9299 78.7096 53.5899C78.9196 52.0199 78.2596 50.0199 77.5196 47.7499C76.9396 45.9899 76.3396 44.1799 76.0196 42.1999C75.3996 38.3399 76.4296 34.9299 78.9196 32.5799C81.9596 29.7299 86.8696 28.8199 92.4096 30.0799C95.5696 30.7999 97.8996 32.3499 99.9496 33.7099C102.88 35.6599 104.59 36.6499 108.17 34.2399C112.5 31.3199 106.84 19.8899 103.83 13.2899L115.06 8.60986C116.57 11.9099 123.86 28.8899 119.05 38.5799C117.43 41.8399 114.64 43.9999 110.98 44.8099C103.02 46.5899 98.3596 43.4899 94.9596 41.2299C93.3496 40.1599 91.9396 39.3199 90.4096 38.8799C79.7796 35.8499 94.6196 51.4899 87.6696 58.5199C83.4996 62.7299 73.3096 63.8399 72.6496 63.9999C66.0896 65.5799 62.7696 75.3499 62.7696 75.3499Z" fill="#F48FB1"/>
<path d="M43.9898 38.79C43.7998 40.99 43.7098 42.3 44.2798 45.16C47.0298 47.18 53.0198 47.18 53.0198 47.18C52.7598 46.37 52.5298 45.67 52.4298 45.17C52.4098 45.1 52.3998 45.02 52.3798 44.95C46.2898 41.91 43.9898 38.79 43.9898 38.79Z" fill="#C92B27"/>
<path d="M31.5304 48.6399L21.1904 43.5699L26.3404 36.1299L34.4504 41.4999L31.5304 48.6399Z" fill="#FFC107"/>
<path d="M16.29 34.6001C11.01 33.8901 5.63004 29.4101 5.04004 28.9001L10.23 22.8101C11.8 24.1401 15.13 26.3701 17.36 26.6701L16.29 34.6001Z" fill="#FB8C00"/>
<path d="M25.6098 21.27L18.0098 18.78C18.8798 16.12 19.1098 13.25 18.6598 10.48L26.5598 9.20996C27.2098 13.23 26.8798 17.4 25.6098 21.27Z" fill="#03A9F4"/>
<path d="M73.0732 15.3252L80.8882 13.6152L83.1452 23.9312L75.3302 25.6412L73.0732 15.3252Z" fill="#FB8C00"/>
<path d="M92.46 17.7701L86.96 11.9601C89.84 9.23012 90.5 5.66012 90.5 5.62012L98.4 6.91012C98.3 7.54012 97.29 13.2001 92.46 17.7701Z" fill="#FFC107"/>
<path d="M95.5137 48.58L102.501 46.396L104.887 54.032L97.8997 56.216L95.5137 48.58Z" fill="#FB8C00"/>
<path d="M97.55 113.03L89.6 112.09C89.94 109.26 87.83 105.79 87.25 105.02L93.65 100.22C94.13 100.85 98.3 106.62 97.55 113.03Z" fill="#F44336"/>
<path d="M120.37 102.89C117.38 102.44 114.32 102.26 111.3 102.37L111.03 94.3701C114.54 94.2501 118.09 94.4501 121.56 94.9801L120.37 102.89Z" fill="#FB8C00"/>
<path d="M109.614 113.902L115.234 108.209L122.969 115.847L117.349 121.539L109.614 113.902Z" fill="#F48FB1"/>
<path d="M93.1031 63.334L98.8831 69.943L92.2741 75.723L86.4941 69.114L93.1031 63.334Z" fill="#F44336"/>
<defs>
<linearGradient id="paint0_linear_1486_2" x1="74.3836" y1="61.8391" x2="44.6166" y2="79.6991" gradientUnits="userSpaceOnUse">
<stop offset="0.024" stop-color="#8F4700"/>
<stop offset="1" stop-color="#703E2D"/>
</linearGradient>
</defs>
</svg>
