<svg width="39" height="36" viewBox="0 0 39 36" fill="none" xmlns="http://www.w3.org/2000/svg">
<path d="M36 0H3C2.20435 0 1.44129 0.344804 0.87868 0.958559C0.31607 1.57231 0 2.40475 0 3.27273V32.7273C0 33.5953 0.31607 34.4277 0.87868 35.0414C1.44129 35.6552 2.20435 36 3 36H36C36.7957 36 37.5587 35.6552 38.1213 35.0414C38.6839 34.4277 39 33.5953 39 32.7273V3.27273C39 2.40475 38.6839 1.57231 38.1213 0.958559C37.5587 0.344804 36.7957 0 36 0ZM34.0612 9.33955L16.0613 28.9759C15.9219 29.1281 15.7565 29.2488 15.5744 29.3311C15.3923 29.4134 15.1971 29.4558 15 29.4558C14.8029 29.4558 14.6077 29.4134 14.4256 29.3311C14.2435 29.2488 14.0781 29.1281 13.9387 28.9759L6.43875 20.7941C6.15729 20.487 5.99917 20.0706 5.99917 19.6364C5.99917 19.2021 6.15729 18.7857 6.43875 18.4786C6.72021 18.1716 7.10195 17.9991 7.5 17.9991C7.89805 17.9991 8.27979 18.1716 8.56125 18.4786C12.0229 22.256 17.9774 22.2563 21.4394 18.4792L31.9387 7.02409C32.2202 6.71704 32.602 6.54454 33 6.54454C33.398 6.54454 33.7798 6.71704 34.0612 7.02409C34.3427 7.33114 34.5008 7.74759 34.5008 8.18182C34.5008 8.61605 34.3427 9.0325 34.0612 9.33955Z" fill="#4ECB71"/>
</svg>
