<svg width="31" height="32" viewBox="0 0 31 32" fill="none" xmlns="http://www.w3.org/2000/svg">
<g clip-path="url(#clip0_1443_74)">
<path d="M30.7167 25.7077L21.3121 15.9997L30.7167 6.29166C30.8969 6.10337 30.998 5.84935 30.998 5.58466C30.998 5.31998 30.8969 5.06596 30.7167 4.87766L26.2741 0.291664C26.1842 0.198599 26.0775 0.124756 25.96 0.0743696C25.8424 0.0239837 25.7164 -0.00195313 25.5891 -0.00195312C25.4619 -0.00195312 25.3359 0.0239837 25.2183 0.0743696C25.1008 0.124756 24.9941 0.198599 24.9042 0.291664L15.4996 9.99966L6.09499 0.291664C5.91332 0.104193 5.66696 -0.00112229 5.41008 -0.00112229C5.1532 -0.00112229 4.90684 0.104193 4.72518 0.291664L0.282489 4.87766C0.192332 4.97038 0.120796 5.08057 0.0719845 5.20189C0.0231732 5.32322 -0.00195312 5.45329 -0.00195312 5.58466C-0.00195312 5.71603 0.0231732 5.84611 0.0719845 5.96744C0.120796 6.08876 0.192332 6.19894 0.282489 6.29166L9.68711 15.9997L0.282489 25.7077C0.100876 25.8952 -0.00114825 26.1495 -0.00114825 26.4147C-0.00114825 26.6798 0.100876 26.9341 0.282489 27.1217L4.72518 31.7077C4.815 31.8007 4.92174 31.8746 5.03927 31.925C5.1568 31.9753 5.28282 32.0013 5.41008 32.0013C5.53735 32.0013 5.66336 31.9753 5.78089 31.925C5.89843 31.8746 6.00517 31.8007 6.09499 31.7077L15.4996 21.9997L24.9042 31.7077C25.0859 31.8951 25.3323 32.0005 25.5891 32.0005C25.846 32.0005 26.0924 31.8951 26.2741 31.7077L30.7167 27.1217C30.8069 27.0289 30.8784 26.9188 30.9272 26.7974C30.9761 26.6761 31.0012 26.546 31.0012 26.4147C31.0012 26.2833 30.9761 26.1532 30.9272 26.0319C30.8784 25.9106 30.8069 25.8004 30.7167 25.7077Z" fill="#FF3A00"/>
</g>
<defs>
<clipPath id="clip0_1443_74">
<rect width="31" height="32" fill="white"/>
</clipPath>
</defs>
</svg>
